<?xml version="1.0" encoding="UTF-8" standalone="no"?>
<!-- Generator: Adobe Illustrator 13.0.2, SVG Export Plug-In . SVG Version: 6.00 Build 14948)  -->

<svg
   xmlns:dc="http://purl.org/dc/elements/1.1/"
   xmlns:cc="http://creativecommons.org/ns#"
   xmlns:rdf="http://www.w3.org/1999/02/22-rdf-syntax-ns#"
   xmlns:svg="http://www.w3.org/2000/svg"
   xmlns="http://www.w3.org/2000/svg"
   xmlns:sodipodi="http://sodipodi.sourceforge.net/DTD/sodipodi-0.dtd"
   xmlns:inkscape="http://www.inkscape.org/namespaces/inkscape"
   id="Layer_1"
   enable-background="new 0 0 275.408 322.337"
   xml:space="preserve"
   viewBox="0 0 744.09452 1052.3622"
   version="1.1"
   y="0px"
   x="0px"
   inkscape:version="0.91 r13725"
   sodipodi:docname="johnny-automatic-quince.svg"
   inkscape:export-filename="/Users/zuj007/Documents/QuinCe/Repository/QuinCe/WebApp/WebContent/resources/image/quince.png"
   inkscape:export-xdpi="55.842571"
   inkscape:export-ydpi="55.842571"
   width="210mm"
   height="297mm"><defs
     id="defs4315" /><sodipodi:namedview
     pagecolor="#ffffff"
     bordercolor="#666666"
     borderopacity="1"
     objecttolerance="10"
     gridtolerance="10"
     guidetolerance="10"
     inkscape:pageopacity="0"
     inkscape:pageshadow="2"
     inkscape:window-width="1802"
     inkscape:window-height="1171"
     id="namedview4313"
     showgrid="false"
     inkscape:zoom="0.89812834"
     inkscape:cx="331.08411"
     inkscape:cy="-300.86613"
     inkscape:window-x="3038"
     inkscape:window-y="97"
     inkscape:window-maximized="0"
     inkscape:current-layer="Layer_1"
     units="mm" /><path
     d="m 129.08,799.8248 c 6.341,0 11.873,-1.716 17.77,-3.937 2.743,-1.033 3.016,-3.186 3.758,-5.785 0.979,-3.425 1.957,-6.85 2.936,-10.274 0.542,-1.897 2.28,-5.156 1.467,-7.079 -0.8,-1.889 -2.346,-3.397 -3.56,-5.018 -1.628,-2.175 -3.687,-4.341 -4.693,-6.895 -0.882,-2.234 -2.654,-3.695 -3.427,-6.013 -4.33,15.136 -10.44,29.717 -14.26,45.001 m -29.246,250.5 c -3.671,-1.225 -8.019,-2.046 -11.236,-4.247 -3.383,-2.314 -7.936,-3.144 -11.806,-4.434 -3.873,-1.291 -7.292,-1.069 -11.354,-1.069 -3.385,0 -6.105,-1.892 -8.737,-3.847 -6.86,-5.098 -12.372,-10.527 -17.371,-17.471 -4.908,-6.815 -8.875,-14.178 -12.268,-21.852 -3.486,-7.887 -6.53,-15.952 -9.184,-24.155 -2.598,-8.027 -5.915,-15.621 -7.642,-23.89 -1.778,-8.512 -4.697,-16.738 -6.071,-25.331 -0.625,-3.906 -1.73,-7.589 -2.011,-11.553 -0.33,-4.652 -0.823,-9.291 -1.26,-13.934 -0.834,-8.865 -1.304,-17.7 -0.41,-26.581 0.412,-4.093 1.049,-8.169 1.992,-12.175 0.923,-3.923 1.277,-7.393 3.195,-11.015 3.88,-7.329 7.649,-14.449 13.121,-20.747 5.115,-5.887 11.076,-10.758 17.236,-15.496 2.935,-2.256 6.375,-3.606 9.55,-5.483 3.653,-2.16 7.83,-3.802 11.768,-5.377 3.536,-1.414 7.316,-1.968 11.018,-2.769 4.096,-0.887 8.286,-1.917 12.509,-1.556 4.073,0.349 8.429,1.394 12.35,2.535 4.164,1.212 8.005,1.73 12.368,1.446 2.525,-0.165 6.38,-0.718 7.432,-3.348 1.671,-4.177 3.351,-8.344 4.77,-12.616 2.767,-8.328 5.318,-17.042 6.639,-25.729 1.077,-7.081 1.746,-14.554 0.172,-21.578 -0.302,-1.348 -1.429,-4.595 -0.418,-5.849 0.706,-0.875 3.82,-1.123 4.9,-1.304 2.133,-0.357 4.096,-0.197 6.228,-0.71 1.266,-0.305 2.932,-0.2 4.117,0.373 1.455,0.705 3.287,1.348 4.616,2.234 1.05,0.7 2.361,1.506 2.891,2.711 0.286,0.651 0.09,0.709 -0.382,1.062 -0.49,0.366 -0.157,1.354 -0.322,1.887 -0.768,2.48 -1.646,5.158 -1.114,7.835 0.68,3.421 2.579,7.487 4.714,10.23 2.333,2.999 5.132,5.757 7.654,8.607 1.166,1.318 2.313,2.542 3.332,3.982 0.838,1.187 1.981,0.827 3.315,0.727 3.887,-0.293 7.9,-0.017 11.8,-0.017 1.849,0 3.635,-0.551 5.468,-0.708 2.464,-0.211 5.006,-0.042 7.479,-0.042 4.312,0 8.342,0.128 12.581,0.976 1.903,0.38 3.846,0.537 5.736,0.988 2.211,0.527 4.229,1.678 6.357,2.459 7.557,2.772 14.546,7.071 19.909,13.117 5.46,6.155 10.292,12.614 14.9,19.421 9.433,13.935 15.806,30.136 20.117,46.348 4.548,17.097 7.097,35.378 6.918,53.082 -0.044,4.359 -0.471,8.68 -0.716,13.027 -0.245,4.355 -0.526,7.807 -2.35,11.832 -3.199,7.064 -8.437,12.586 -14.676,17.146 -3.273,2.393 -6.662,4.624 -10.125,6.73 -1.645,1 -3.122,2.461 -4.829,3.318 -1.772,0.889 -3.77,1.038 -5.53,1.999 -1.493,0.813 -3.217,1.67 -4.874,2.088 -0.651,0.163 -1.529,-0.748 -2.432,-0.606 -2.53,0.397 -3.293,4.331 -4.119,6.278 -6.707,15.809 -14.697,31.225 -22.791,46.362 -3.875,7.248 -9.109,13.319 -14.679,19.321 -2.512,2.707 -5.049,5.454 -7.688,8.036 -2.912,2.849 -6.819,4.164 -10.799,4.713 -3.82,0.527 -7.701,0.4 -11.515,1.012 -4.15,0.665 -7.62,2.88 -11.639,3.931 -8.226,2.151 -16.134,2.076 -24.503,0.851 -7.54,-1.09 -14.71,-1.17 -22.306,-1.17"
     id="path4265"
     inkscape:connector-curvature="0"
     style="clip-rule:evenodd;fill:#010101;fill-rule:evenodd"
     inkscape:export-filename="/Users/zuj007/Documents/QuinCe/Repository/QuinCe/WebApp/WebContent/resources/image/path4309.png"
     inkscape:export-xdpi="55.842571"
     inkscape:export-ydpi="55.842571" /><path
     d="m 133.58,1048.8248 c 2.001,-2.002 2.25,-4.029 2.25,-6.75 -1.385,1.386 -2.309,3.165 -3.75,4.5 -1.701,1.576 -3.17,1.27 -5.25,0.75 2.63,-1.315 3.992,-3.992 6,-6 -2.32,0 -4.262,1.22 -5.899,2.906 -2.212,2.278 -3.354,1.009 -6.101,0.094 3.709,-1.236 6.886,-1.158 8.25,-5.25 -3.735,-0.488 -7.774,5.296 -11.25,0.75 3.25,-1 6.5,-2 9.75,-3 -0.946,-0.473 -1.797,-0.75 -2.864,-0.75 -0.845,0 -1.351,0.75 -2.182,0.75 l -4.158,0 c -1.059,0 -1.062,-1.55 -1.296,-2.25 3.336,0 6.151,0.399 9,-1.5 -1.814,-0.907 -3.877,-0.567 -5.822,-0.551 -1.636,0.015 -2.84,-0.483 -4.289,-1.116 -0.803,-0.351 -2.639,-1.018 -2.639,0.494 0,2.167 0.461,3.194 -1.5,4.173 0.462,0.925 1.487,1.908 1.5,3 0.007,0.583 -0.623,0.961 -0.75,1.5 -0.11,0.465 0.269,1.064 0,1.5 -0.395,0.641 -1.85,1.005 -2.444,1.662 -1,1.107 -2.263,1.441 -3.556,2.088 1.054,-0.601 0.387,-1.523 0.828,-2.406 0.587,-1.174 0.499,-1.689 -0.078,-2.844 -2.197,3.294 -4.112,5.879 -8.25,4.5 2.241,-1.121 3.531,-3.531 5.25,-5.25 -2.934,0 -3.216,0.219 -5.173,2.173 -1.248,1.248 -3.754,2.364 -5.327,1.577 2.952,-0.984 5.016,-3.048 6,-6 -0.557,0.978 -1.36,0.54 -2.25,0.75 -0.996,0.235 -1.53,1.141 -2.406,1.578 -1.661,0.83 -3.402,1.518 -5.094,0.672 1.656,-0.828 3.431,-1.274 5.13,-1.981 1.09,-0.453 0.87,-1.513 0.87,-2.519 -2.126,1.063 -4.97,2.402 -7.387,2.282 -1.083,-0.054 -3.132,-1.12 -2.966,-2.636 0.157,-1.427 7.161,0.782 7.412,-2.203 0.155,-1.843 -3.185,-1.019 -3.96,-0.638 -1.609,0.79 -4.212,-0.17 -5.701,-0.867 -0.791,-0.371 -1.128,-0.521 -0.974,-1.433 0.153,-0.905 1.53,-0.506 2.166,-0.506 2.64,0 4.253,-0.343 6.161,-2.25 -3.07,0 -8.78,0.952 -10.682,-2.2 -1.299,-2.153 0.42,-1.691 2.171,-1.564 1.976,0.144 3.676,0.933 5.511,0.015 -1.317,-1.932 -3.645,-0.841 -5.25,-1.875 -0.964,-0.621 -2.112,-0.541 -3.197,-0.753 -1.556,-0.304 -2.906,-1.174 -4.303,-1.872 0,4.228 0.102,8.376 -0.873,12.521 -0.245,1.038 -0.532,3.07 -1.782,3.387 -1.573,0.398 -3.258,-0.158 -4.845,-0.158 1.514,-1.514 2.591,-2.318 1.5,-4.5 -0.923,1.386 -1.679,2.31 -3.304,2.852 -2.025,0.675 -2.125,0.838 -4.196,0.148 2.151,-1.075 4.482,-2.945 5.25,-5.25 -1.4,0 -2.526,0.237 -3.716,0.987 -1.692,1.066 -3.415,1.39 -5.284,2.013 1.642,-0.821 3.779,-1.769 4.776,-3.405 1.042,-1.711 -0.555,-1.473 -0.276,-2.595 -0.436,0.653 -0.691,1.428 -1.228,2.016 -0.793,0.868 -3.061,1.164 -4.164,1.531 -2.297,0.767 -3.584,-0.522 -5.108,-2.047 1.83,-0.61 3.322,-1.89 5.096,-2.515 1.948,-0.686 1.654,-0.749 1.654,-2.735 -4.17,2.084 -8.969,3.781 -12.75,0 3.64,0 7.884,-0.018 9.75,-3.75 -1.437,0 -2.706,0.75 -4.192,0.75 -1.622,0 -3.263,-0.08 -4.88,0.053 -0.861,0.07 -1.89,0.255 -2.738,0.014 -1.052,-0.299 -2.499,-2.954 -3.189,-3.816 3.5,-0.5 7,-1 10.5,-1.5 -1.002,-1.831 -5.179,-1.021 -6.793,-0.877 -3.733,0.334 -5.293,-1.681 -8.207,-3.623 2.223,0 4.485,-0.121 6.702,0.038 1.601,0.115 2.212,-0.788 3.798,-0.788 -2.176,-2.174 -4.064,-0.851 -6.8,-1.695 -2.264,-0.698 -5.308,-0.223 -6.482,-2.822 -1.181,-2.615 0.973,-2.232 2.669,-2.232 2.575,0 4.188,1.174 6.113,-0.75 -1.4,0 -3.079,-0.585 -4.471,-0.828 -1.294,-0.226 -3.2,-0.354 -4.371,-0.906 -2.328,-1.101 -2.867,-4.434 -3.908,-6.516 1.421,0 2.709,0.75 4.128,0.75 1.68,0 3.274,-0.218 4.872,-0.75 -1.702,-0.851 -3.708,-0.729 -5.406,-1.578 -1.96,-0.979 -3.897,-1.948 -5.844,-2.922 l 9.75,0 c -0.965,-0.483 -1.983,-1.5 -3.125,-1.5 -1.208,0 -2.277,-0.076 -3.376,-0.626 -0.385,-0.216 -0.77,-0.431 -1.156,-0.644 -0.725,-0.362 -1.406,0.049 -2.093,-0.23 -1.168,-0.476 -1.73,-1.961 -2.25,-3 3.128,0 7.356,2.381 9.75,-0.75 l -12,-4.5 c 2.713,1.356 5.944,1.5 8.924,1.5 -0.078,0 0.721,-2.04 0.826,-2.25 -1.049,0 -1.905,-0.202 -2.844,-0.672 -1.06,-0.53 -2.459,-0.078 -3.58,-0.078 -2.628,0 -3.814,-2.475 -4.827,-4.5 2.053,0.685 4.469,1.283 6.613,1.579 1.594,0.22 2.103,-0.361 2.395,-1.903 0.108,-0.568 -4.516,-0.453 -5.384,-0.891 -2.351,-1.184 -3.985,-2.147 -5.874,-4.035 0.748,0 1.504,-0.118 2.25,0 0.792,0.126 1.438,0.701 2.25,0.75 1.575,0.095 3.143,-0.821 4.5,-1.5 -1.14,-0.57 -2.392,-0.544 -3.622,-0.7 -1.3,-0.165 -2.389,-0.806 -3.541,-1.382 -2.204,-1.102 -2.294,-1.832 -3.337,-3.918 0.514,0.903 2.416,0.98 3.359,1.383 1.657,0.706 4.841,0.142 6.391,-0.633 -0.858,-0.43 -1.607,-1.07 -2.525,-1.384 -1.076,-0.368 -2.248,-0.051 -3.349,-0.469 -1.012,-0.383 -1.899,-0.559 -2.949,-0.801 -1.455,-0.335 -2.191,-1.61 -3.177,-2.597 3.019,0 6.088,0.221 9,-0.75 -0.93,-1.633 -5.199,-1.16 -6.78,-1.869 -2.441,-1.094 -3.72,-2.154 -3.72,-4.881 3.133,1.044 6.258,2.742 9,0 -2.362,-1.182 -4.736,-2.001 -7.253,-2.79 -1.087,-0.341 -1.705,0.067 -2.277,-1.022 -0.373,-0.708 -0.613,-1.474 -0.97,-2.188 1.234,0.616 2.597,0.366 3.875,0.792 1.621,0.54 2.762,0.496 4.375,-0.042 -1.323,-0.661 -2.646,-1.323 -3.969,-1.984 -0.802,-0.401 -1.77,-0.383 -2.554,-0.834 -0.743,-0.427 -1.271,-2.269 -1.646,-3.02 -0.777,-1.555 -1.554,-3.108 -2.331,-4.662 3.583,1.792 7.207,3 11.25,3 l -12,-7.5 c 1.517,0.506 3.238,0.658 4.597,1.564 1.38,0.92 2.828,1.66 4.403,2.186 l -10.5,-9 c 2.714,1.81 5.751,3.333 9,2.25 -1.284,-1.69 -3.545,-1.846 -5.349,-2.66 -1.613,-0.728 -4.598,-2.849 -4.401,-4.84 0.749,0.25 1.537,0.398 2.25,0.75 0.811,0.4 1.365,1.231 2.25,1.5 1.685,0.512 3.533,0 5.25,0 -1.665,-2.191 -4.615,-1.643 -6.75,-3 -2.777,-1.765 -3.75,-2.774 -3.75,-6 3.321,1.106 6.091,3.75 9.75,3.75 -0.929,-0.929 -2.184,-1.435 -3.111,-2.361 -1.255,-1.256 -2.339,-1.272 -3.735,-2.203 -2.499,-1.666 -4.403,-3.489 -4.403,-6.686 1.129,0.563 2.492,1.033 3.477,1.835 0.766,0.624 1.374,1.255 2.441,1.2 1.117,-0.056 0.749,0.493 1.583,0.715 0.975,0.259 2.013,0 3,0 -2.726,-1.363 -4.976,-3.339 -7.506,-4.996 -2.428,-1.591 -2.994,-4.22 -2.994,-7.004 2.617,1.744 5.242,3.498 8.25,4.5 -3,-3.5 -6,-7 -9,-10.5 3.067,2.044 5.852,4.5 9.75,4.5 -2.008,-2.008 -4.214,-3.695 -6.352,-5.546 -1.76,-1.525 -2.21,-3.513 -2.648,-5.704 l 9,6 c -1.708,-2.562 -3.757,-4.169 -6.07,-6.116 -2.513,-2.116 -2.18,-2.922 -2.18,-5.884 l 8.25,6 c 1.14,-2.279 -0.913,-3.616 -2.354,-5.45 -1.715,-2.184 -3.431,-4.367 -5.146,-6.55 l 7.5,5.25 c 0.359,-1.707 -2.571,-3.569 -3.641,-4.469 -2.074,-1.745 -2.483,-4.275 -3.109,-6.781 2.085,1.39 4.075,2.464 5.544,4.56 1.022,1.458 3.721,1.684 1.981,-0.069 -1.505,-1.516 -2.597,-3.521 -3.922,-5.223 -2.057,-2.642 -2.141,-4.367 -1.354,-7.518 2.632,2.632 4.344,6.146 7.5,8.25 -0.402,-1.005 -0.698,-2.051 -1.143,-3.04 -0.638,-1.419 -1.852,-2.377 -2.607,-3.71 -1.414,-2.495 -1.295,-4.774 -0.75,-7.5 0.495,0.495 1.129,0.89 1.5,1.5 0.422,0.694 0.328,1.556 0.75,2.25 0.829,1.363 2.333,1.778 3.75,2.25 -1.949,-3.897 -4.886,-6.707 -3.75,-11.25 1.455,1.455 2.64,3.029 3.561,4.872 0.89,1.778 2.215,2.74 3.939,1.878 -0.5,-0.998 -0.856,-2.078 -1.5,-3 -0.615,-0.881 -1.715,-1.3 -2.25,-2.25 -1.006,-1.788 -0.75,-4.035 -0.75,-6 3.21,1.07 4.443,4.443 6.75,6.75 1.162,-2.323 -1.094,-3.689 -2.125,-5.751 -1.364,-2.729 -1.591,-4.132 -0.875,-6.999 2.214,3.321 3.479,6.494 7.5,7.5 0,-2.316 -2.263,-3.027 -3.264,-5.028 -1.149,-2.299 -2.403,-4.305 -0.486,-6.222 1.07,1.375 3.795,7.313 6,6.75 -0.725,-2.174 -1.281,-4.171 -2.567,-6.1 -0.541,-0.811 -1.081,-1.622 -1.621,-2.432 -0.578,-0.867 0.714,-1.494 1.188,-1.968 1.249,1.873 2.425,3.792 3.583,5.722 1.323,2.207 2.455,2.515 4.667,1.778 -2.141,-2.141 -3.245,-4.236 -4.576,-6.887 -0.44,-0.876 -1.151,-1.775 -1.372,-2.741 -0.123,-0.535 3.197,-2.721 3.698,-3.122 1.083,1.624 1.475,3.672 2.729,5.182 1.025,1.233 2.542,1.826 4.021,2.318 -1.452,-2.178 -2.985,-4.18 -3.724,-6.732 -0.812,-2.808 -0.792,-3.008 1.474,-4.518 0.91,1.82 1.862,4.161 3.321,5.614 1.177,1.173 2.816,1.729 4.179,2.636 -1.771,-2.657 -3.432,-5.367 -4.861,-8.222 -0.669,-1.339 0.866,-3.744 2.313,-2.446 2.337,2.096 3.327,6.918 7.048,6.918 -1.411,-2.116 -2.275,-4.538 -3.686,-6.653 -1.919,-2.878 1.516,-3.512 3.686,-4.597 0.518,2.071 0.996,4.226 2.25,6 1.232,1.743 3.004,3.004 4.5,4.5 -0.821,-1.642 -2.1,-3.027 -2.813,-4.729 -0.931,-2.222 -1.216,-4.916 -1.687,-7.271 1.534,0.152 3.183,-0.841 4.5,-1.5 1.103,4.409 2.629,7.689 6.75,9.75 -0.883,-1.325 -2.095,-2.443 -2.775,-3.901 -0.922,-1.978 -1.196,-4.484 -1.725,-6.599 2.419,0 5.761,-3.472 6.468,0.186 0.639,3.309 2.442,5.724 4.782,8.064 0,-1.692 -1.119,-2.977 -1.515,-4.56 l -1.485,-5.94 c 2.194,0 5.474,-0.847 6.851,1.265 0.77,1.18 0.677,2.071 0.807,3.424 0.152,1.576 1.242,3.037 2.092,4.312 0,-2.777 -0.515,-5.308 -0.721,-8.038 -0.124,-1.636 1.83,-0.962 3.036,-0.962 1.479,0 1.93,3.126 2.121,4.147 0.441,2.35 0.523,4.563 2.313,6.353 1.008,-4.031 -0.531,-7.375 -1.5,-11.25 2.479,0 4.338,-0.601 5.392,2.274 1.208,3.296 1.358,7.005 1.358,10.476 1.918,-0.959 2.27,-3.031 2.076,-5.087 -0.159,-1.685 -2.039,-7.204 1.276,-5.865 6.137,2.479 3.895,9.715 2.648,14.702 1.863,0 2.312,-0.921 2.542,-2.601 0.361,-2.638 0.803,-5.268 1.208,-7.899 0.954,1.59 2.25,3.099 2.25,5.056 l 0,7.694 c 2.307,-2.307 3,-5.854 3,-9 1.24,2.067 3.085,4.308 3.061,6.848 -0.031,3.25 -2.438,6.398 -0.811,9.652 2.435,-3.652 1.98,-7.172 3,-11.25 2.148,2.148 3,4.033 3,7.202 0,1.703 -1.179,7.008 1.804,6.374 2.036,-0.433 -1,-11.742 2.926,-9.924 2.712,1.256 1.207,2.867 2.592,4.763 0.801,1.097 1.35,2.12 0.393,3.316 -0.281,0.351 -1.436,1.237 -0.428,1.536 4.795,1.419 2.176,-6.248 2.37,-8.389 0.136,-1.501 3.208,-0.03 3.547,0.987 0.454,1.363 0.442,2.826 0.897,4.189 0.401,1.205 -0.799,1.461 -0.054,2.692 1.224,2.021 2.208,0.039 2.453,-1.496 0.218,-1.373 -0.375,-3.122 -0.557,-4.483 -0.228,-1.71 -0.561,-2.627 1.575,-2.24 1.014,0.184 1.33,1.328 1.232,2.224 -0.13,1.198 0.75,2.13 0.75,3.413 0,0.877 -0.601,3.369 0.599,3.361 0.88,-0.01 1.053,-0.162 1.297,-1.045 0.763,-2.767 0.509,-5.265 -0.396,-7.979 3.836,0 3.75,2.878 3.75,6 0.749,-0.25 2.25,-0.244 2.25,-1.358 0,-1.179 0.371,-2.403 0.1,-3.575 -0.207,-0.892 -1.724,-1.688 -1.307,-2.712 0.485,-1.192 2.387,-1.354 3.457,-1.354 -0.771,3.853 -1.822,7.646 -2.479,11.523 -0.74,4.365 -0.763,8.854 -0.984,13.269 -0.435,8.672 -0.818,17.634 0.087,26.284 0.903,8.624 2.871,17.088 4.453,25.597 0.725,3.894 2.485,7.44 4.013,11.069 1.703,4.045 3.521,7.983 5.664,11.817 1.919,3.434 3.795,7.006 6.065,10.222 2.437,3.449 5.424,6.455 8.29,9.539 5.497,5.915 12.384,10.582 18.721,15.58 2.706,2.135 5.589,3.079 8.895,3.785 4.15,0.887 8.037,2.596 12.22,3.399 3.023,0.581 6.261,1.577 8.997,3.021 2.563,1.353 2.078,4.032 -0.893,2.424 -2.471,-1.338 -5.023,-2.667 -7.798,-1.279 3.48,1.74 7.823,2.146 9.75,6 -1.857,0 -3.508,-1.24 -5.05,-2.118 -2.053,-1.169 -4.081,-1.191 -6.2,-0.132 2.817,1.408 5.618,3.062 8.561,4.19 0.737,0.282 2.084,0.629 2.13,1.623 0.044,0.93 -1.141,1.485 -0.94,2.437 -0.604,-0.789 -1.646,-0.896 -2.327,-1.577 -0.658,-0.658 -1.142,-1.555 -1.958,-2.045 -1.687,-1.014 -4.333,-0.878 -6.215,-0.878 1.138,0.568 1.924,1.595 3,2.25 1.123,0.684 2.401,0.901 3.361,1.861 2.121,2.121 3.724,3.132 2.639,6.389 -3.026,-2.017 -5.899,-5.25 -9.75,-5.25 1.926,1.926 3.456,3.539 5.657,5.146 1.924,1.403 2.097,4.097 1.093,6.104 -2.692,-2.692 -5.284,-5.511 -9,-6.75 0,2.176 3.548,4.298 4.998,5.748 1.3,1.3 1.782,2.591 2.354,4.306 0.479,1.44 -1.642,2.065 -1.352,3.446 -2.692,-2.692 -5.284,-5.511 -9,-6.75 1.359,2.718 4.174,3.715 5.701,6.097 0.561,0.873 1.454,1.785 1.719,2.809 0.234,0.903 -1.679,3.107 -2.17,3.845 -2.093,-3.138 -4.885,-6.75 -9,-6.75 1.81,1.81 3.401,3.785 4.935,5.829 0.551,0.735 1.749,1.818 1.92,2.736 0.165,0.89 -0.104,1.795 -0.104,2.685 l -4.5,-4.5 -2.25,-2.25 c -0.449,-0.949 -0.916,-0.998 -1.398,-0.147 -0.303,0.19 -0.506,0.453 -0.609,0.787 -0.056,1.197 2.879,3.014 3.712,3.639 1.335,1.001 2.226,2.358 2.563,3.995 0.137,0.664 0.726,3.251 -0.154,3.567 -1.172,0.421 -2.411,-1.1 -2.966,-1.857 -1.221,-1.668 -2.396,-3.479 -3.319,-5.327 -0.473,-0.947 -2.508,0.309 -3.078,0.594 0.814,1.086 1.685,2.13 2.66,3.075 0.84,0.814 2.235,1.525 2.851,2.507 1.601,2.559 0.939,4.018 -0.261,6.418 -1.653,-1.653 -2.777,-3.927 -4.672,-5.326 -0.341,-0.251 -3.401,-2.169 -2.744,-0.602 0.862,2.059 2.706,3.585 3.553,5.678 0.353,0.874 0.857,2.079 0.826,3.029 -0.042,1.22 -1.595,2.941 -2.213,3.971 -1.783,-1.783 -3.038,-5.25 -6,-5.25 0.512,1.022 0.859,2.146 1.553,3.07 0.715,0.953 1.799,1.769 2.197,2.93 0.924,2.693 -1.321,4.321 -3,6 -0.945,-2.836 -3.207,-4.707 -5.25,-6.75 0.725,2.176 2.325,5.076 2.345,7.373 0.017,1.907 -1.875,3.407 -3.095,4.627 0,-2.502 -0.329,-4.852 -1.703,-6.985 -1.349,-2.094 -2.414,-0.857 -1.309,1.066 2.231,3.889 -0.543,9.104 -4.488,10.419 0.984,-2.951 2.261,-5.979 0.75,-9 -1.589,2.383 -1.881,5.499 -3.791,7.566 -1.758,1.899 -4.467,1.805 -6.709,0.684 1.111,-1.454 3.044,-1.363 4.5,-2.25 1.615,-0.982 1.832,-2.828 2.25,-4.5 -2.57,-0.254 -3.389,2.82 -5.353,3.802 -2.907,1.454 -3.997,2.049 -5.897,-0.802 2.616,0 9.261,-1.729 7.5,-5.25 -1.962,0.98 -2.844,2.25 -5.188,2.25 -2.556,0 -2.334,-0.062 -3.062,-2.25 1.703,0 6.199,0.551 7.168,-1.321 0.341,-0.659 0.035,-1.587 -0.724,-1.8 -0.882,-0.248 -1.335,0.871 -2.139,0.871 -1.881,0 -3.827,-2.398 -5.168,-0.388 -1.495,2.239 -1.757,4.774 -2.897,7.178 -1.02,2.148 -1.863,4.413 -3.228,6.377 -1.53,2.204 -3.244,2.979 -5.55,4.058 -0.258,0.12 -4.148,3 -4.076,1.085 0.076,-2.013 1.516,-3.164 -0.637,-4.81 -0.555,1.11 -0.688,2.397 -1.323,3.475 -0.78,1.37 -2.61,2.42 -3.9,3.28"
     id="path4267"
     inkscape:connector-curvature="0"
     style="clip-rule:evenodd;fill:#feda3c;fill-rule:evenodd"
     inkscape:export-filename="/Users/zuj007/Documents/QuinCe/Repository/QuinCe/WebApp/WebContent/resources/image/path4309.png"
     inkscape:export-xdpi="55.842571"
     inkscape:export-ydpi="55.842571" /><path
     d="m 154.58,1028.5748 c -0.155,-0.622 0.128,-0.905 0.75,-0.75 -0.62,-0.16 -0.9,0.13 -0.75,0.75 m -17.25,-201 0,-0.75 c -0.289,0.211 -0.539,0.461 -0.75,0.75 l 0.75,0 m -103.5,3.75 c 0.622,-0.155 0.905,0.128 0.75,0.75 0.155,-0.62 -0.128,-0.9 -0.75,-0.75 m 98.996,208.5 c 1.788,-1.787 2.25,-3.521 2.25,-6 -1.44,0.721 -1.357,1.355 -2.432,2.433 -1.19,1.188 -2.378,2.378 -3.568,3.567 0.286,-1.149 -0.459,-0.738 -1.023,-0.312 -1.02,0.771 -1.033,-0.672 -1.977,-0.438 2.564,-1.282 4.034,-4.033 6,-6 -1.264,0 -2.848,0.2 -3.929,0.913 -0.997,0.657 -1.74,1.886 -3.013,2.061 -0.94,0.129 -1.666,0.804 -2.551,0.779 -0.479,-0.013 -0.029,-0.622 -0.44,-0.758 -0.418,-0.137 -0.891,0.01 -1.316,0.01 1.692,-0.564 3.901,-0.763 5.445,-1.634 1.266,-0.714 1.632,-2.347 2.055,-3.616 -3.007,1.503 -6.401,1.5 -9.683,1.5 -0.398,0 0.106,-0.808 0.265,-0.86 1.046,-0.349 2.092,-0.697 3.138,-1.046 1.843,-0.615 3.687,-1.229 5.53,-1.844 l -7.685,0 c -2.37,0 -2.135,-0.213 -2.815,-2.25 2.949,0 6.026,0.724 8.25,-1.5 -2.889,-1.445 -5.976,0.059 -8.896,-1.042 -1.648,-0.622 -2.404,0.036 -2.338,1.73 0.059,1.511 -0.062,2.334 -1.516,3.062 1.385,-0.305 0.976,4.001 0.854,4.649 -0.205,1.09 -1.566,1.401 -2.339,2.109 -1.188,1.088 -2.346,1.532 -3.765,2.241 0.555,-1.109 1.047,-2.967 1.349,-4.174 0.427,-1.71 -1.385,-0.39 -1.728,0.018 -2.011,2.392 -3,4.529 -6.371,3.406 1.634,-1.635 2.866,-3.616 4.5,-5.25 -3.802,-1.901 -5.959,5.645 -9.75,3.75 1.208,-0.806 2.66,-1.27 3.75,-2.25 1.087,-0.979 1.612,-2.475 2.25,-3.75 -3.037,1.013 -5.681,3 -9,3 2.394,-1.196 4.722,-1.944 6,-4.5 -1.496,0.498 -2.927,1.257 -4.5,1.5 -1.512,0.234 -3.035,0.262 -4.5,0.75 -0.276,-1.312 3.28,-2.521 0.095,-2.272 -0.289,0.022 -1.434,0.247 -1.595,0.022 -0.812,-1.127 2.836,-0.75 3.231,-0.75 0.951,0 4.883,-1.34 2.875,-2.894 -0.757,-0.586 -2.68,0.48 -3.552,0.567 -0.725,0.073 -4.364,-0.802 -2.554,-0.674 -0.854,0.179 -2.579,-0.768 -3,-1.5 2.872,-0.958 6.005,-0.01 8.25,-2.25 l -5.771,0 c -0.713,0 -1.124,-0.75 -1.833,-0.75 l -2.897,0 c 0.958,-0.552 0.958,-1.698 0,-2.25 1.121,-0.561 1.783,-0.463 2.938,-0.168 1.651,0.422 3.058,0.17 4.562,-0.582 -0.677,-1.195 -3.656,-0.9 -4.944,-1.386 -1.251,-0.472 -2.55,-0.864 -3.899,-0.864 -1.156,0 -2.18,-1.011 -3.156,-1.5 0,0.737 0.19,8.216 -0.101,8.242 -0.466,0.043 -2.673,-2.647 -2.88,-1.024 -0.138,1.082 0.684,6.833 -0.503,7.085 -0.445,0.095 -4.087,-0.209 -3.321,-0.63 0.505,-0.277 1.351,0.067 1.584,-0.612 0.278,-0.811 -0.028,-1.732 -0.028,-2.561 -1.228,0.819 -2.489,2.323 -3.802,2.906 -1.14,0.507 -2.507,0.094 -3.698,0.094 1.77,-1.77 4.089,-2.929 5.25,-5.25 -2.777,0.926 -5.473,2.074 -8.25,3 1.123,-0.562 3.171,-2.232 3.909,-3.221 1.236,-1.656 -0.434,-1.677 -0.159,-2.779 -1.545,1.545 -3.001,3 -5.125,3.708 -2.177,0.727 -3.796,-1.024 -5.375,-2.208 3.086,-1.028 6.408,-1.972 7.5,-5.25 -1.907,0.954 -4.021,2.25 -6.222,2.25 -0.804,0 -1.497,0.607 -2.292,0.501 -1.302,-0.175 -2.35,-1.433 -3.486,-2.001 3.556,0 6.489,-1.238 9,-3.75 -3.001,0 -6.111,0.6 -9.106,0.883 -3.482,0.329 -3.539,-1.208 -5.144,-3.883 3.25,-0.5 6.5,-1 9.75,-1.5 -1.003,-1.834 -5.137,-0.977 -6.753,-0.833 -2.918,0.259 -5.201,-1.348 -6.747,-3.667 1.619,0 2.533,0.303 4.049,0.697 1.499,0.39 4.27,-0.97 5.701,-1.447 -2.391,0 -5.016,-0.546 -7.397,-0.843 -2.028,-0.254 -4.288,-1.107 -5.144,-3.123 -0.755,-1.777 0.521,-2.541 2.166,-1.992 2.271,0.757 4.052,1.031 5.875,-0.792 -1.358,-0.452 -2.48,-0.811 -3.917,-0.674 -0.836,0.08 -2.169,0.365 -2.929,-0.141 -1.037,-0.691 -1.934,-1.543 -2.624,-2.583 -0.461,-0.695 -2.512,-3.688 -1.03,-3.353 l -0.75,-0.75 c 1.218,-0.105 2.243,0.75 3.446,0.75 1.409,0 2.724,-0.307 4.054,-0.75 -1.589,0.208 -3.934,-1.135 -5.476,-1.561 -1.49,-0.412 -3.335,-1.711 -4.274,-2.939 l 8.25,0 c -2.109,0 -4.798,-1.082 -6.747,-1.838 -1.92,-0.745 -3.753,-0.884 -3.753,-3.412 3.182,1.061 6.186,1.127 9,-0.75 l -11.25,-3.75 c 2.891,0.963 6.673,1.577 9,-0.75 -1.506,-0.502 -7.409,-0.099 -8.178,-1.562 -0.592,-1.126 -2.492,-1.969 -2.322,-3.688 1.829,0.61 4.016,1.444 5.95,1.61 1.776,0.153 3.542,-2.541 0.887,-2.321 -0.889,0.074 -2.031,0.301 -2.796,-0.304 -0.593,-0.469 -1.065,-1.235 -1.916,-1.235 -0.786,0 -1.64,0.146 -2.342,-0.307 -1.036,-0.668 -1.011,-2.105 -2.034,-2.693 3.289,0 5.608,1.892 8.25,-0.75 -0.908,0.09 -1.497,-0.75 -2.375,-0.75 -1.409,0 -1.754,-0.439 -2.875,-0.75 -0.99,-0.274 -2.476,-0.099 -3.199,-0.977 -0.656,-0.797 -0.848,-1.868 -1.301,-2.773 3.06,1.02 5.822,1.81 9,0.75 -2.323,-0.774 -4.646,-1.548 -6.97,-2.323 -1.58,-0.526 -1.949,-1.427 -3.374,-1.427 -0.292,0 -0.233,-0.863 -0.211,-0.972 0.207,-1.005 1.833,-0.409 2.428,-0.23 2.479,0.747 3.755,0.367 5.877,-1.048 -1.519,-0.759 -3.327,-0.598 -4.941,-1.062 -1.468,-0.423 -2.79,-1.092 -4.059,-1.938 1.439,0.358 0.347,-1.026 0,-1.5 -0.186,-0.255 -0.75,0.317 -0.75,-0.194 0,-0.577 -0.247,-1.016 -0.75,-1.306 1.61,0.536 3.505,0.261 5.04,0.925 1.953,0.846 2.3,0.183 3.96,-0.925 -1.796,-0.898 -3.588,-0.821 -5.352,-1.89 -1.001,-0.606 -2.112,-0.342 -3.12,-0.847 -1.026,-0.513 -1.147,-1.841 -2.028,-2.514 2.804,0 5.417,0.75 8.25,0.75 -0.922,-1.352 -2.897,-1.448 -4.251,-2.126 -1.739,-0.869 -2.414,-2.204 -3.249,-3.874 l 1.5,0 c -1.45,-1.088 -2.915,-2.081 -3.75,-3.75 0.807,0.403 1.55,0.75 2.472,0.75 0.883,0 1.52,0.871 2.25,1.236 1.745,0.872 3.925,0.264 5.778,0.264 l -11.25,-7.5 c 2.53,1.687 5.379,2.793 8.25,3.75 l -9,-8.25 c 1.88,1.88 4.846,3.577 7.5,2.25 -0.754,-1.105 -2.195,-0.964 -3.219,-1.646 -0.856,-0.571 -1.712,-1.143 -2.569,-1.713 -0.344,-0.229 -2.89,-1.333 -0.962,-1.142 -0.675,0.168 -2.291,-2.229 -2.088,-2.288 0.941,-0.273 2.761,1.068 3.604,1.363 1.682,0.589 3.449,0.925 5.233,0.925 -2.497,-2.497 -6.117,-3.328 -9,-5.25 l 1.5,0 c -0.574,-0.574 -1.5,-1.099 -1.5,-2.028 0,-0.842 -0.949,-0.922 -0.75,-1.722 2.366,1.578 6.092,3.75 9,3.75 -2.771,-2.771 -6.229,-4.729 -9,-7.5 -0.38,1.525 1.604,0.432 1.412,-0.382 -0.155,-0.66 -1.356,-0.03 -1.389,-0.743 -0.026,-0.568 -0.303,-0.183 -0.683,-0.496 -0.331,-0.273 -0.09,-1.047 -0.09,-1.379 2.366,1.578 6.092,3.75 9,3.75 -0.612,-0.801 -1.668,-0.919 -2.361,-1.611 -1.024,-1.024 -2.087,-1.674 -3.334,-2.386 -0.854,-0.487 -1.652,-1.075 -2.336,-1.785 -0.493,-0.512 -2.619,-2.723 -0.968,-2.468 -1.389,0.316 -1.165,-4.706 1.176,-1.941 0.634,0.749 1.34,1.769 2.391,1.904 1.75,0.226 2.446,0.546 3.934,1.537 -2.75,-3.5 -5.5,-7 -8.25,-10.5 2.303,2.303 4.803,4.5 8.25,4.5 -1.636,-2.455 -4.022,-3.813 -5.906,-6.057 -1.435,-1.709 -1.594,-2.142 -1.594,-4.443 2.148,2.148 4.568,4.273 7.5,5.25 -0.799,-2.396 -2.279,-3.73 -4.478,-4.86 -1.059,-0.544 -2.06,-1.412 -2.092,-2.726 -0.016,-0.646 0.449,-1.095 0.257,-1.777 -0.187,-0.662 -0.509,-1.162 -0.438,-1.887 l 7.5,6.75 c 1.14,-2.279 -0.913,-3.616 -2.354,-5.45 -1.715,-2.184 -3.431,-4.367 -5.146,-6.55 1.857,1.445 3.814,2.815 5.546,4.408 1.01,0.929 2.679,0.896 1.319,-0.54 -1.328,-1.402 -3.167,-2.473 -4.054,-4.247 -0.922,-1.845 -1.311,-3.562 -1.311,-5.622 1.795,2.693 4.492,4.492 6.75,6.75 0,-2.259 -0.286,-2.536 -1.978,-4.228 -1.677,-1.677 -2.96,-3.398 -4.022,-5.522 0.83,0.206 1.032,-0.699 0.184,-0.613 -0.855,0.087 0.004,-2.819 0.566,-3.137 1.001,1.501 2.15,2.683 3.653,3.686 1.367,0.912 1.957,2.674 3.097,3.814 -0.653,-2.612 -1.879,-4.947 -3.291,-7.221 -1.51,-2.431 -0.99,-3.625 -0.459,-6.279 1.244,2.488 2.51,5.087 5.25,6 -0.959,-2.879 -2.79,-5.371 -3.75,-8.25 0.542,0.112 0.75,0.051 0.75,-0.528 0.041,-0.324 0.041,-0.648 0,-0.972 -0.25,-0.012 -0.5,-0.012 -0.75,0 0.207,-2.261 2.718,1.637 2.946,2.293 0.646,1.853 2.626,2.957 4.554,2.957 -1.882,-2.823 -3.425,-5.776 -4.5,-9 1.277,0.291 0.75,-1.604 0.75,-2.25 2.683,1.789 3.771,4.521 6,6.75 1.327,-2.653 -2.743,-4.812 -3.57,-7.332 -0.084,-0.256 -0.577,-2.418 -0.024,-2.418 1.394,0 2.162,-1.357 0.594,-2.25 1.901,2.852 3.857,5.571 6.75,7.5 0,-2.444 -3,-3.421 -3,-5.778 0,-1.278 -1.5,-1.762 -1.5,-3 0,-1.163 0.75,-1.046 0.75,-2.472 0.973,1.389 3.829,8.098 6,7.5 -0.506,-1.517 -0.658,-3.238 -1.564,-4.597 -0.92,-1.38 -1.661,-2.828 -2.186,-4.403 0.476,0.835 0.968,0.545 1.739,0.6 1.021,0.072 1.492,1.426 1.9,2.178 1.039,1.914 2.303,3.626 4.61,2.472 -1.886,-1.886 -3.29,-4.094 -4.348,-6.535 -0.321,-0.74 -1.027,-1.944 -0.592,-2.767 0.283,-0.534 1.518,-1.888 2.191,-1.684 0.485,0.147 1.613,0.353 1.975,0.643 0.712,0.568 0.547,1.936 1.214,2.666 1.255,1.375 2.059,3.177 4.06,3.177 -0.744,-1.116 -5.519,-10.543 -2.068,-9.7 1.103,0.27 2.039,2.113 2.363,3.086 0.65,1.95 2.504,2.764 4.205,3.614 -0.753,-2.259 -2.325,-4.141 -3.564,-6.145 -1.491,-2.41 -0.419,-2.622 1.314,-4.355 -0.131,0.526 0.889,1.161 1.174,1.964 0.622,1.75 2.588,2.56 3.404,4.192 0.351,0.701 1.303,2.084 2.007,0.517 0.384,-0.855 -1.867,-3.519 -2.24,-4.312 -0.442,-0.938 -1.887,-3.605 -0.771,-4.34 1.629,-1.073 2.175,-1.029 3.299,0.507 0.925,1.264 1.113,2.348 1.685,3.781 0.631,1.583 3.572,2.777 4.942,3.69 -1.626,-2.438 -2.858,-4.991 -3.839,-7.748 -0.28,-0.785 -0.741,-1.787 -0.602,-2.643 0.188,-1.149 2.869,-1.199 3.69,-1.609 -0.175,0.704 0.716,0.854 0.694,0.917 -0.259,0.761 1.058,1.909 1.397,2.564 1.307,2.522 2.237,3.904 4.659,5.518 -1.403,-2.104 -3.066,-5.088 -3.616,-7.57 -0.624,-2.813 0.565,-2.218 2.484,-3.109 0.664,-0.308 1.48,-0.72 2.231,-0.694 0.617,0.022 0.875,2.461 1.088,3.02 1.02,2.671 2.141,4.489 4.562,6.103 -1.529,-3.057 -2.177,-6.46 -3,-9.75 0.959,0 4.245,-0.531 4.896,0.242 0.221,0.262 0.211,1.149 0.501,1.268 0.489,0.199 0.689,-0.409 0.602,-0.76 0.538,1.614 0.352,3.353 0.843,4.911 0.402,1.275 1.432,2.252 2.157,3.339 0,-2.781 -0.519,-5.317 -0.721,-8.052 -0.041,-0.548 -0.226,-1.687 0.597,-1.783 0.552,-0.064 2.224,-0.119 2.429,0.531 0.224,0.712 -0.125,1.575 -0.067,2.309 0.068,0.87 1.525,0.761 1.887,1.606 0.821,1.915 -0.394,4.333 1.216,5.963 2.025,2.049 1.318,-2.47 1.103,-3.234 -0.419,-1.483 -2.148,-5.493 -1.061,-6.944 0.387,-0.517 3.617,-0.501 3.617,0.398 0,0.72 -0.241,6.98 1.5,3.954 0,0.316 -0.345,2.398 0.22,2.284 0.815,-0.165 0.661,0.909 0.53,1.466 -0.238,1.009 -0.98,2.269 -0.642,3.326 0.177,0.551 0.794,0.347 1.169,0.16 1.092,-0.546 1.174,-1.807 1.116,-2.879 -0.136,-2.483 -0.098,-4.971 -0.894,-7.357 1.251,0 2.89,0.487 3.978,1.083 0.916,0.501 -0.497,5.456 -0.978,6.417 2.4,0 2.526,-1.855 3,-3.75 0,3.525 0.514,6.73 -1.5,9.75 l 1.5,0.75 c -0.13,-0.619 0.22,-0.747 0.561,-1.135 0.427,-0.485 0.387,-1.556 0.487,-2.152 0.401,-2.404 0.802,-4.809 1.202,-7.213 -0.208,0.834 0.903,0.61 0.787,2.001 -0.074,0.884 -0.796,3.984 0.713,3.999 -0.143,0 0.922,-1.993 0.81,0.026 -0.111,1.987 -0.06,3.983 -0.06,5.974 2.883,-1.442 2.25,-4.501 2.25,-7.213 0,-1.211 1.179,0.556 1.35,0.824 0.616,0.968 0.672,1.745 0.436,2.903 -0.311,1.525 -1.304,2.951 -0.55,4.458 0.729,1.458 0.859,-0.365 1.332,-0.856 0.847,-0.882 0.125,1.876 0.05,2.05 -0.699,1.64 -0.368,3.574 -0.368,5.334 1.145,-1.145 2.135,-2.02 2.231,-3.722 0.132,-2.33 0.018,-4.525 0.769,-6.778 0.449,0.449 1.65,1.129 1.506,1.87 -0.135,0.698 0.774,0.794 0.789,1.521 0.015,0.71 -0.141,1.414 -0.157,2.123 -0.023,1 0.479,0.737 0.766,1.323 0.468,0.954 0.149,2.604 0.113,3.628 -0.043,1.224 -0.567,2.821 1.274,2.283 0.662,-0.193 0.62,-4.996 0.612,-5.837 -0.01,-1.032 -0.503,-3.863 0.899,-4.192 3.435,-0.806 5.689,6.116 3.869,8.17 -0.688,0.776 -0.813,2.556 0.614,1.632 1,-0.647 2.458,-2.046 2.2,-3.357 -0.19,-0.97 -0.455,-1.827 -0.528,-2.826 -0.096,-1.323 0.475,-1.223 1.339,-1.89 0.619,-0.478 0.293,-0.881 1.396,-0.788 0.728,0.062 0.373,1.403 0.331,1.875 -0.074,0.83 0.553,1.219 0.728,1.963 0.236,1.006 -0.005,2.138 0,3.162 0.001,0.348 -0.074,1.035 0.323,1.238 0.273,0.14 1.791,0.24 1.86,0.017 0.336,-1.09 0.105,-2.54 0.084,-3.664 -0.007,-0.406 -0.132,-1.134 0.141,-1.489 0.791,-1.032 0.592,-1.731 0.592,-3.015 1.494,1.494 1.261,2.522 2.172,4.344 0.498,0.996 -1.209,3.107 -0.466,3.824 0.183,0.177 2.05,0.212 2.067,-0.066 0.043,-0.683 0.237,-1.061 0.468,-1.74 0.378,-1.111 0.259,-2.267 0.259,-3.423 0,-0.939 0.911,-2.172 0.75,-2.939 1.905,1.3 1.327,4.154 2.25,6 2.036,-1.557 1.448,-3.907 0.75,-6 0.851,0 1.772,0.152 2.25,-0.75 0.337,-0.637 -0.503,-1.761 0.75,-1.5 -0.552,2.208 -0.386,3.971 -0.632,6.174 -0.297,2.655 -1.833,5.4 -2.368,8.076 1.506,-0.343 0.547,6.099 0.502,6.953 -0.21,3.991 -0.683,7.733 -0.284,11.737 0.814,8.187 1.657,16.369 2.518,24.551 0.813,7.728 3.447,15.486 6.588,22.551 1.722,3.875 3.425,7.731 5.419,11.476 1.581,2.972 2.598,6.492 4.827,9.065 5.1,5.883 10.109,11.57 15.81,16.89 1.56,1.456 3.12,2.911 4.68,4.367 0.427,0.398 0.642,0.218 1.097,0.467 0.125,0.069 -0.026,0.574 0.152,0.753 1.013,1.013 1.829,2.385 3.147,3.044 1.765,0.883 3.531,1.766 5.232,2.768 2.731,1.607 4.548,3.002 7.735,3.511 3.465,0.552 6.772,1.323 10.128,2.376 1.938,0.607 3.874,1.225 5.846,1.718 0.279,0.07 0.103,0.819 0.103,0.997 0,0.738 -0.415,0.528 -0.972,0.528 -1.11,0 -1.977,-1.59 -3.081,-1.941 -1.842,-0.586 -3.803,-0.309 -5.697,-0.309 1.168,1.168 1.974,1.5 3.625,1.5 1.355,0 2.628,1.084 3.875,1.5 -0.414,-0.087 -1.196,0.146 -1.395,0.56 -0.291,0.607 1.654,1.2 1.95,1.496 0.348,0.348 1.06,0.096 1.482,0.188 0.763,0.168 -0.415,0.942 -0.85,0.877 -1.67,-0.252 -3.29,-1.828 -4.837,-2.498 -1.786,-0.774 -3.601,-0.749 -5.352,0.127 2.25,1 4.5,2 6.75,3 l -0.75,0.75 4.5,2.25 c -0.535,0.308 -0.883,0.868 -0.75,1.5 -1.68,-0.839 -3.191,-1.971 -4.871,-2.811 -1.766,-0.883 -2.814,-0.939 -4.879,-0.939 1.418,1.857 4.293,2.042 6,3.75 -2.003,-0.295 1.911,1.326 2.146,1.681 0.961,1.454 0.852,2.828 0.104,4.319 -2.979,-1.489 -5.431,-4.5 -9,-4.5 1.746,1.746 3.902,3.087 5.606,4.842 1.379,1.419 0.816,3.216 0.394,4.908 -1.198,-1.423 -3.003,-2.285 -4.342,-3.585 -1.155,-1.123 -2.374,-1.903 -3.908,-2.415 0,4.497 8.173,4.733 6.455,9.886 -0.927,2.779 -2.632,1.849 -3.93,-0.098 -1.36,-2.042 -3.054,-3.038 -5.525,-3.038 0.853,0.651 0.954,1.886 1.852,2.484 1.216,0.811 2.564,1.67 3.41,2.894 0.426,0.617 1.816,2.12 1.606,2.895 -0.207,0.763 -0.697,1.947 -1.004,2.672 -0.461,1.088 -2.651,-2.381 -2.938,-2.738 -1.465,-1.829 -3.541,-4.148 -5.926,-2.956 3.142,3.142 6,6.057 6,10.5 l -7.5,-7.5 c -1.465,2.93 2.105,5.552 4.5,6.75 -1.96,1.127 0.462,1.461 0.943,2.335 0.573,1.04 0.687,3.018 -1.208,3.012 -0.612,0 -0.236,-0.707 -0.632,-0.827 -1.127,-0.342 -1.273,0.132 -1.759,-1.216 -0.472,-1.311 -1.309,-2.433 -2.158,-3.523 -1.166,-1.498 -1.871,-1.053 -3.437,-0.53 0.207,0.416 0.354,1.367 0.875,1.542 0.649,0.216 1.611,0.194 2.125,0.708 0.514,0.514 0.492,1.476 0.708,2.125 0.239,0.715 2.477,1.827 0.792,1.625 0.901,-0.225 1.423,1.672 1.5,2.25 0.1,0.751 -0.576,1.879 -0.957,2.479 -0.804,1.267 -2.032,-1.065 -2.588,-1.719 -1.262,-1.483 -2.465,-3.021 -3.844,-4.399 -1.027,-1.027 -0.653,1.128 -0.352,1.556 0.99,1.407 1.811,2.938 2.766,4.371 2.11,3.164 0.663,4.649 -1.025,7.462 -1.348,-1.348 -2.306,-2.516 -3.225,-4.184 -0.625,-1.135 -1.59,-1.066 -2.775,-1.066 0.54,1.082 0.893,2.501 1.814,3.336 0.516,0.467 1.936,1.202 1.936,2.017 0,0.879 0.255,1.796 0.065,2.669 -0.183,0.841 -2.384,1.967 -3.065,2.479 -1.145,-2.29 -2.697,-4.197 -4.5,-6 0.752,2.254 1.846,4.681 2.083,7.061 0.202,2.03 -1.314,3.177 -2.833,4.189 0,-2.91 -0.929,-5.429 -3,-7.5 -0.607,1.216 -0.858,1.296 -0.193,2.531 0.423,0.787 1.062,2.693 0.747,3.54 -0.448,1.201 -0.295,2.671 -0.826,3.775 -0.761,1.581 -2.74,1.781 -4.228,2.153 1.863,-2.794 3.445,-5.555 0.75,-8.25 -0.678,1.353 -0.248,2.469 -0.75,3.75 -0.271,0.691 -1.127,0.888 -1.5,1.5 -0.415,0.682 -0.502,1.507 -0.75,2.25 -0.69,-1.201 -2.556,-0.706 -2.25,0.75 -1.48,-0.37 -2.963,-0.75 -4.5,-0.75 0.649,-1.141 2.154,-0.579 3.177,-1.125 1.101,-0.587 1.127,-0.466 1.801,-1.567 0.642,-1.049 3.202,-4.268 0.071,-3.152 -0.849,0.302 -1.618,0.754 -2.42,1.155 -1.045,0.522 -0.837,2.685 -2.46,1.179 -1.465,-1.359 -0.26,-1.857 1.312,-1.766 1.51,0.089 2.064,-1.27 3.019,-2.224 -1.754,-0.876 -1.631,-0.073 -3.289,0.596 -1.583,0.639 -3.995,0.619 -5.711,0.904 0,-2.126 -0.336,-2.07 1.856,-2.239 1.356,-0.104 3.182,-0.81 4.249,-1.632 1.845,-1.421 -1.694,-1.335 -2.577,-0.893 -2.081,1.041 -3.333,-2.567 -5.249,0.365 -0.951,1.457 -1.069,3.366 -1.592,5 -0.645,2.019 -1.498,3.983 -2.617,5.785 -2.164,3.483 -5.527,6.363 -9.82,6.363 1.023,-2.047 0.894,-3.606 -0.75,-5.25 -0.95,2.87 -1.9,4.99 -4.48,6.71"
     id="path4269"
     inkscape:connector-curvature="0"
     style="clip-rule:evenodd;fill:#fcef4b;fill-rule:evenodd"
     inkscape:export-filename="/Users/zuj007/Documents/QuinCe/Repository/QuinCe/WebApp/WebContent/resources/image/path4309.png"
     inkscape:export-xdpi="55.842571"
     inkscape:export-ydpi="55.842571" /><path
     d="m 138.08,836.5748 c 0.666,0.166 0.916,-0.084 0.75,-0.75 -0.24,0.24 -0.55,0.47 -0.75,0.75 m -3,189.75 c 0.983,-1.967 1.5,-3.792 1.5,-6 -1.388,1.388 -2.044,3.19 -3.775,4.251 -1.56,0.957 -2.774,0.674 -4.475,0.249 2.261,-1.13 4.12,-2.989 5.25,-5.25 -0.672,0 -1.386,-0.2 -2.051,-0.021 -0.603,0.163 -0.964,1.579 -1.452,2.028 -1.786,1.648 -4.102,1.707 -6.248,0.992 3.103,-1.033 5.654,-1.213 6.75,-4.5 -2.761,1.38 -6.093,2.203 -9,0.75 l 8.25,-3 c -1.843,0 -3.695,-0.082 -5.529,0.145 -0.924,0.115 -1.837,0.311 -2.721,0.605 l -0.75,-2.25 c 2.826,0 5.397,0.604 7.5,-1.5 -2.562,-0.854 -5.568,-0.104 -7.941,-1.209 -2.18,-1.015 -2.559,1.156 -2.559,2.682 0,0.829 -0.75,1.313 -0.75,2.136 0,1.286 0.299,2.618 0,3.892 -0.539,2.292 -3.452,2.851 -5.25,3.75 0.75,-1.499 2.257,-6.185 -0.64,-3.083 -1.499,1.604 -3.12,3.453 -5.36,2.333 0.724,-0.725 1.449,-1.448 2.173,-2.173 0.682,-0.682 0.788,-1.724 1.577,-2.327 -3.127,0 -4.985,3 -8.25,3 2.839,-1.419 3.893,-2.535 5.25,-5.25 -2.693,1.347 -5.121,3 -8.25,3 2.189,-1.095 4.116,-2.233 5.25,-4.5 -1.702,0.852 -3.956,2.062 -5.819,2.432 -1.562,0.311 -2.284,-1.535 -3.181,-2.432 2.17,-1.085 4.809,0.133 6,-2.25 -3.31,0 -6.189,-0.376 -9,-2.25 2.943,0 5.299,-0.049 7.5,-2.25 -3.019,0 -6.088,0.221 -9,-0.75 0.243,-0.258 0.493,-0.508 0.75,-0.75 -0.632,0.133 -1.192,-0.215 -1.5,-0.75 1.18,-0.394 2.094,-1.005 3.224,-0.268 1.31,0.855 3.034,0.139 4.276,-0.482 -3.166,-1.583 -8.192,-0.711 -10.5,-3.75 0,3.849 0.144,7.237 -1.228,10.914 -0.232,0.621 -0.666,3.199 -1.788,2.392 -0.789,-0.567 -2.302,-0.232 -2.711,-1.156 -0.547,-1.232 1.392,-0.521 1.3,-1.375 -0.221,-2.044 -1.979,0.268 -2.453,0.426 -0.255,0.085 -1.312,-0.111 -1.377,0.167 -0.091,0.384 0.027,0.633 -0.549,0.633 -1.093,0 -2.199,1.748 -3.194,0 1.945,-0.973 3.305,-2.777 5.25,-3.75 -2.934,0 -5.531,1.344 -8.25,2.25 1.472,-0.736 2.892,-1.284 3.672,-2.844 0.103,-0.206 1.308,-1.381 0.723,-1.653 -0.46,-0.214 -0.845,0.052 -0.645,-0.753 -2.946,2.946 -5.443,3.87 -9,1.5 1.375,-0.917 2.804,-1.685 4.375,-2.208 0.727,-0.242 2.736,-1.789 1.004,-2.217 -1.896,-0.469 -3.184,1.425 -5.007,1.425 -1.789,0 -3.668,0.076 -4.873,-1.5 3.033,0 6.055,-0.806 8.25,-3 -0.92,0 -1.912,-0.3 -2.816,-0.017 -1.324,0.415 -1.863,0.902 -3.387,0.801 -1.164,-0.077 -2.581,0.268 -3.654,-0.316 -1.337,-0.728 -2.018,-2.301 -2.893,-3.468 l 8.25,-1.5 c -1.046,0.221 -1.233,-0.98 -2.34,-0.513 -1.252,0.528 -2.49,0.652 -3.796,0.218 -0.734,-0.245 -1.585,-0.237 -2.346,-0.365 -1.336,-0.226 -2.59,-2.161 -3.519,-3.09 2.739,0 5.693,0.528 8.25,-0.75 -0.868,0.086 -1.453,-0.568 -2.25,-0.75 -1.137,-0.259 -1.969,0.068 -3.114,-0.409 -0.885,-0.369 -1.776,-0.17 -2.665,-0.428 -0.816,-0.237 -1.319,-1.012 -1.887,-1.58 -1.667,-1.667 -0.328,-2.453 1.422,-1.911 2.217,0.687 3.754,0.818 5.494,-0.922 -2.383,-0.795 -4.756,-0.345 -7.094,-1.109 -2.094,-0.685 -2.631,-3.834 -3.406,-5.641 2.113,1.057 4.475,0.75 6.75,0.75 -2.81,-1.873 -6.19,-2.627 -9,-4.5 l 7.5,0 c -3.542,-1.181 -6.823,-1.235 -9,-4.5 2.775,0 5.577,0.141 8.25,-0.75 l -9.75,-3.75 c 2.114,1.058 6.252,1.746 7.5,-0.75 -3.701,-1.235 -7.485,0.045 -9,-4.5 1.771,0.886 3.508,0.623 5.402,0.78 1.103,0.092 3.08,-1.53 1.414,-1.53 -3.155,0 -7.48,-0.58 -9.065,-3.75 2.49,1.245 5.519,1.23 7.5,-0.75 -0.763,-0.255 -1.521,-0.75 -2.353,-0.75 -0.94,0 -1.976,0.305 -2.897,0 -1.78,-0.589 -2.771,-2.281 -3.75,-3.75 2.828,0.943 5.302,1.732 8.25,0.75 -0.802,-0.401 -1.396,-1.199 -2.25,-1.5 -0.981,-0.346 -2.007,0.247 -3,0 -1.85,-0.46 -3.656,-2.062 -4.5,-3.75 2.589,0 4.997,1.251 7.5,0 -2.339,-1.169 -9.706,-1.627 -9,-6 1.792,0.896 5.656,1.672 7.5,0.75 -3.163,-2.108 -6.785,-1.928 -9,-5.25 1.263,0 2.437,0.312 3.625,0.708 1.235,0.413 2.61,0.042 3.875,0.042 -1.139,-1.14 -2.576,-1.868 -4.166,-2.124 -1.192,-0.191 -1.785,0.144 -2.392,-0.952 -1.039,-1.879 -1.576,-3.973 -2.443,-5.924 3.037,2.025 6.201,2.25 9.75,2.25 l -10.5,-6 c 2.555,0.851 5.089,1.794 7.5,3 l -8.25,-7.5 c 1.18,0.59 2.302,1.284 3.398,2.016 0.95,0.634 2.3,0.234 3.352,0.234 -2.272,-2.272 -5.981,-2.963 -7.5,-6 2.596,0 4.904,1.5 7.5,1.5 -1.773,-1.773 -4.473,-2.731 -6.555,-4.119 -2.127,-1.418 -1.695,-1.778 -1.695,-4.131 2.397,1.599 4.412,3.75 7.5,3.75 -1.408,-1.841 -4.059,-2.984 -5.904,-4.356 -2.144,-1.594 -3.096,-2.42 -3.096,-5.394 2.812,1.875 5.479,3.75 9,3.75 -3.564,-1.781 -9,-5.325 -9,-9.75 2.472,0.824 4.444,2.597 6.75,3.75 -2.25,-3 -4.5,-6 -6.75,-9 1.567,1.567 5.243,3.75 7.5,3.75 -2.994,-2.993 -6.44,-5.51 -7.5,-9.75 2.177,2.177 4.754,3.877 7.5,5.25 -0.244,-0.731 -0.252,-1.918 -0.969,-2.396 -1.271,-0.847 -2.542,-1.695 -3.813,-2.542 -2.114,-1.41 -1.968,-3.272 -1.968,-5.562 1.014,0.788 6.564,5.895 7.344,4.732 0.576,-0.857 -5.789,-8.159 -6.594,-9.232 l 6,4.5 c 0.302,-1.654 -2.325,-3.233 -3.353,-4.13 -1.777,-1.55 -1.897,-3.409 -1.897,-5.62 1.492,1.492 3.101,3.767 4.941,4.812 1.488,0.845 2.378,-1.152 0.903,-1.89 -3.153,-1.577 -6.064,-5.479 -4.344,-8.922 1.966,1.966 3.436,4.718 6,6 -0.72,-2.159 -1.726,-4.202 -2.742,-6.233 -1.003,-2.007 -0.681,-3.655 -0.258,-5.767 0.926,2.778 1.333,5.25 4.5,5.25 -1.097,-1.645 -1.593,-3.602 -2.684,-5.238 -1.176,-1.764 -0.952,-1.855 -0.316,-3.762 1.755,1.755 3.229,6 6,6 -0.885,-1.77 -1.837,-3.506 -2.936,-5.153 -1.138,-1.708 -0.518,-3.533 -0.064,-5.347 2.469,1.234 3.784,3.802 5.25,6 0.96,-1.921 -0.089,-2.993 -1.488,-4.474 -1.903,-2.014 -1.591,-3.537 -0.762,-6.026 0.495,0.495 1.129,0.89 1.5,1.5 0.422,0.694 0.328,1.556 0.75,2.25 0.844,1.388 2.447,2.131 3.75,3 0,-2.102 -1.679,-2.649 -2.449,-4.435 -0.385,-0.892 -0.562,-1.865 -1.07,-2.706 -0.902,-1.493 -0.784,-1.7 -0.23,-3.36 1.363,2.044 3.126,6.75 6,6.75 -0.598,-1.795 -0.646,-3.602 -2.019,-5.024 -0.597,-0.618 -1.231,-1.313 -1.51,-2.144 -0.145,-0.429 -0.062,-2.101 0.775,-1.677 2.489,1.261 2.369,7.538 5.754,5.846 -1.643,-1.643 -2.244,-3.732 -2.958,-5.874 -0.242,-0.728 -0.664,-1.436 -0.756,-2.207 -0.068,-0.577 2.481,-2.057 2.964,-2.419 0.603,1.207 0.795,2.591 1.5,3.75 0.829,1.363 2.333,1.778 3.75,2.25 -1.469,-1.469 -2.384,-3.668 -3.109,-5.587 -0.872,-2.308 -0.21,-2.201 1.609,-3.413 0.381,1.144 0.518,2.474 1.251,3.469 0.938,1.272 2.849,2.132 3.999,3.281 -0.707,-2.121 -1.585,-4.308 -2.849,-6.162 -0.578,-0.847 -1.027,-1.412 -0.123,-2.18 0.447,-0.38 0.831,-0.982 1.445,-0.561 2.219,1.523 2.436,6.947 6.027,5.152 -1.167,-1.167 -3.686,-3.451 -3.932,-5.169 -0.277,-1.934 1.917,-2.882 3.182,-3.831 2.101,3.152 2.677,6.035 6,8.25 -1.114,-2.227 -2.593,-4.382 -3.01,-6.886 -0.105,-0.628 -0.317,-1.787 0.205,-2.308 0.815,-0.815 2.177,-0.201 2.806,-1.306 1.109,3.328 3.051,6.284 6,8.25 -1.737,-2.605 -2.741,-5.22 -3.725,-8.174 0.023,0.07 1.874,-1.331 2.044,-1.458 0.974,-0.723 2.258,-0.135 2.884,0.714 0.769,1.042 1.548,2.37 2.008,3.577 0.699,1.836 1.2,2.034 2.788,3.091 0,-2.236 -1.842,-3.851 -2.17,-6.007 -0.517,-3.391 1.21,-1.359 2.95,-2.777 1.692,-1.379 2.141,1.196 2.404,2.353 0.507,2.227 0.405,4.019 2.067,5.681 0,-1.273 0.289,-2.596 -0.026,-3.853 -0.361,-1.447 -0.724,-2.896 -0.724,-4.397 2.706,0.676 3.275,0.792 4.306,3.321 0.91,2.23 0.658,3.893 2.444,5.679 0,-1.685 0.371,-3.784 -0.238,-5.385 -0.241,-0.634 -1.499,-2.373 -1.213,-3.047 0.315,-0.742 1.872,-0.739 2.504,-0.644 1.187,0.179 1.708,3.103 2.03,4.07 0.463,1.393 1.012,2.503 0.129,3.776 -0.376,0.542 -0.523,2.857 0.714,2.383 1.474,-0.565 1.375,-3.157 1.341,-4.381 -0.049,-1.766 0.174,-3.346 0.733,-5.022 0.498,0.498 0.912,1.097 1.5,1.5 0.499,0.342 1.5,-0.109 1.5,0.853 l 0,2.794 c 0,0.178 0.94,0.119 0.75,-0.647 0.861,2.583 0.097,5.708 -0.75,8.25 3.724,0 2.765,-6.412 3,-9 0,0.894 0.081,1.662 0.486,2.472 0.327,0.653 1.261,0.771 1.014,-0.222 0,2.58 -0.271,5.238 0.053,7.805 0.185,1.466 2.123,-0.574 2.288,-1.279 0.389,-1.652 -0.091,-3.361 -0.091,-5.026 1.731,1.731 2.25,1.777 2.25,4.424 l 0,9.076 c 1.394,-1.394 2.25,-2.722 2.25,-4.749 0,-0.833 -0.324,-1.237 0.566,-1.227 0.359,0 0.184,-2.687 0.184,-3.024 1.135,1.135 2.135,2 2.231,3.69 0.144,2.505 0.019,5.051 0.019,7.56 1.839,-0.919 1.603,-1.882 1.788,-3.919 0.098,-1.076 -0.339,-4.975 1.212,-5.081 -0.284,0.019 1.882,1.833 1.5,0 0.354,0.708 0.844,1.34 1.172,2.062 0.307,0.676 0.142,1.47 0.516,2.101 0.92,1.553 -0.188,1.405 -0.188,2.744 0,1.383 0.551,1.625 2.004,1.373 1.392,-0.242 0.536,-4.121 0.341,-4.9 -0.541,-2.161 2.205,-3.833 2.798,-1.119 0.34,1.56 0.107,3.324 0.107,4.911 0,1.05 -0.253,1.083 0.577,1.097 0.286,0 1.43,0.144 1.655,-0.149 0.876,-1.138 -1.444,-7.88 1.144,-7.459 1.479,0.241 1.077,1.606 1.146,2.735 0.094,1.532 1.22,2.64 0.234,4.012 -0.651,0.907 0.854,1.182 1.428,0.725 0.72,-0.574 0.582,-2.111 0.571,-2.916 -0.013,-0.99 -0.323,-2.29 0.075,-3.235 0.413,-0.98 1.628,-1.725 1.945,-0.365 0.274,1.177 -0.282,4.099 0.861,4.407 0.631,0.17 0.183,11.173 0.207,12.389 0.177,8.901 0.693,17.811 2.083,26.612 2.616,16.576 8.794,32.559 18.498,46.246 3.159,4.455 6.447,8.694 10.441,12.422 2.144,2 4.287,4 6.43,6 0.479,0.448 1.77,2.131 2.463,2.067 0.553,-0.051 1.138,1.387 1.622,1.871 3.252,3.252 7.863,5.31 11.953,7.271 1.886,0.905 4.397,1.643 6.452,2.016 1.994,0.361 4.601,-0.414 5.966,1.584 -0.483,-0.102 -1.025,0.329 -1.406,0.554 -0.292,0.171 -1.697,-1.339 -2.202,-1.507 -1.849,-0.616 -3.478,-1.504 -5.392,-0.547 l 8.25,5.25 c -1.501,0 -2.932,0.034 -4.312,-0.656 -1.511,-0.755 -2.945,-1.594 -4.688,-1.594 2.445,2.445 5.543,3.813 7.5,6.75 l -2.25,0 c 0.473,0.473 2.459,1.407 2.25,2.25 -2.838,-0.945 -5.304,-5.224 -8.25,-3.75 1.967,1.967 4.718,3.436 6,6 -0.273,-0.141 -0.522,-0.131 -0.747,0.029 0.032,-0.073 1.681,3.849 -0.081,2.758 -2.634,-1.63 -4.318,-4.003 -7.422,-5.037 0.69,1.381 1.844,2.061 3,3 1.261,1.022 2.111,2.417 3,3.75 -1.415,-0.353 -0.317,1.215 -0.088,1.743 0.321,0.743 -0.644,2.405 -1.538,1.82 -1.078,-0.705 -1.572,-2.172 -2.409,-3.118 -1.074,-1.216 -2.837,-1.257 -4.215,-1.945 1.581,3.161 4.851,4.802 6,8.25 -0.426,0 -0.897,-0.142 -1.316,0 -0.4,0.132 -0.148,0.707 0.191,0.732 0.702,0.052 0.318,2.229 -0.985,1.058 -1.321,-1.188 -1.632,-3.031 -2.861,-4.255 -1.521,-1.513 -2.957,-0.986 -4.778,-0.53 1.396,0.931 4.208,2.072 4.926,3.64 0.562,1.227 0.652,2.593 1.074,3.86 -3.14,0.626 -3.919,-5.541 -7.5,-3.75 1.347,1.347 3.499,2.412 4.596,3.929 0.895,1.237 0.936,2.915 1.404,4.321 -0.232,-0.268 -0.482,-0.518 -0.75,-0.75 -0.358,0.717 -0.834,1.401 -0.75,2.25 -2.187,-2.187 -3.061,-6 -6.75,-6 1.015,1.521 2.173,2.923 3.466,4.216 1.209,1.209 1.271,3.245 1.784,4.784 -1.207,0 -2.247,0.64 -0.75,1.5 -1.502,0.271 -2.017,-2.794 -2.83,-3.589 -0.761,-0.743 -2.675,-2.202 -3.739,-2.252 -0.977,-0.045 2.14,4.288 2.654,4.752 2.193,1.98 -0.162,5.133 -1.335,7.089 -0.724,-2.173 -1.874,-4.5 -4.5,-4.5 0.678,2.037 1.425,2.438 2.725,4.047 1.544,1.91 -0.766,3.744 -1.975,4.953 -1.025,-2.051 -2.383,-4.19 -4.5,-5.25 0.653,1.96 1.34,3.638 1.533,5.713 0.237,2.551 -0.27,2.693 -2.283,4.037 0,-1.187 0.479,-2.606 0,-3.75 -0.49,-1.167 -1.686,-1.871 -2.25,-3 -0.542,1.084 -0.955,1.254 -0.194,2.277 0.457,0.615 0.85,2.507 0.605,3.238 -0.928,2.786 -0.959,4.984 -4.161,4.984 1.411,-2.822 2.414,-5.086 0,-7.5 -0.442,1.327 -0.572,2.506 -0.802,3.864 -0.183,1.079 -1.339,1.904 -1.88,2.821 -0.607,1.029 -1.035,1.572 -2.319,1.252 -1.011,-0.253 -2.646,-0.137 -3.249,-1.188 3.101,0.407 5.25,-2.607 5.25,-5.25 -2.056,1.027 -3.551,3.07 -5.682,3.915 -2.209,0.876 -2.175,0.05 -3.318,-1.665 2.232,0 4.877,-0.229 6.292,-2.211 0.986,-1.381 -0.33,-1.509 -1.188,-0.606 -0.953,1.003 -3.762,1.049 -5.104,1.317 0,-1.301 -0.205,-3 1.603,-3 1.887,0 3.016,-0.118 4.397,-1.5 -0.924,-1.606 -2.387,0.127 -3.717,0.028 -1.291,-0.095 -2.931,-1.477 -3.774,-0.067 -1.352,2.259 -1.673,4.969 -2.967,7.273 -1.216,2.168 -0.93,3.818 -3.042,5.516 -2.162,1.735 -4.424,1.836 -6.75,3 0,-1.317 0.699,-3.663 -0.75,-4.5 -1.03,2.15 -2.01,4.33 -3.72,6.03"
     id="path4271"
     inkscape:connector-curvature="0"
     style="clip-rule:evenodd;fill:#ffee98;fill-rule:evenodd"
     inkscape:export-filename="/Users/zuj007/Documents/QuinCe/Repository/QuinCe/WebApp/WebContent/resources/image/path4309.png"
     inkscape:export-xdpi="55.842571"
     inkscape:export-ydpi="55.842571" /><path
     d="m 198.08,952.8248 0,-3 c 1.082,0.822 1.479,2.208 2.061,3.371 0.472,0.943 2.402,0.379 3.189,0.379 -1.851,-2.777 -4.5,-5.51 -4.5,-9 1.77,1.77 2.929,4.089 5.25,5.25 -1.082,-3.249 -3,-6.298 -3,-9.75 1.132,1.698 2.08,3.588 3.505,5.069 1.663,1.73 1.863,1.644 3.995,0.931 -1.326,-1.99 -2.653,-3.979 -3.979,-5.97 -0.557,-0.835 -1.549,-1.86 -1.82,-2.836 -0.096,-0.343 0.55,-0.68 0.55,-1.139 0,-1.964 2.173,2.29 2.305,2.554 0.935,1.869 2.117,3.641 4.445,3.641 -2.143,-4.283 -4.581,-7.335 -2.25,-12 0.875,1.749 1.36,4.012 3,5.25 0.588,-1.173 0.927,-1.383 0.194,-2.589 -0.616,-1.016 -0.547,-2.968 -0.944,-4.161 0.424,2.122 0.973,4.083 2.186,5.903 0.543,0.815 0.645,1.859 0.796,2.8 0.243,1.51 0.852,2.712 1.531,4.071 1.217,2.436 2.709,4.877 3.543,7.476 0.47,1.467 2.232,4.279 1.547,5.847 -1.007,2.298 -5.451,1.957 -7.428,1.811 -5.05,-0.37 -9.68,-1.65 -14.18,-3.9"
     id="path4273"
     inkscape:connector-curvature="0"
     style="clip-rule:evenodd;fill:#87ae61;fill-rule:evenodd"
     inkscape:export-filename="/Users/zuj007/Documents/QuinCe/Repository/QuinCe/WebApp/WebContent/resources/image/path4309.png"
     inkscape:export-xdpi="55.842571"
     inkscape:export-ydpi="55.842571" /><path
     d="m 215.33,930.3248 c 0,-0.987 -0.796,-5.609 1.755,-4.172 1.04,0.586 0.925,3 1.095,4.021 0.3,1.8 0.6,3.601 0.9,5.401 1.292,-2.584 1.678,-4.715 0.75,-7.5 3.539,2.359 3.211,6.021 3.023,9.924 -0.114,2.38 1.789,1.442 2.102,-0.301 0.374,-2.084 0.875,-4.512 0.875,-6.623 1.315,1.315 2.408,2.426 2.323,4.402 -0.1,2.305 -0.823,4.528 -0.823,6.848 2.449,-1.632 3,-3.839 3,-6.75 1.739,0.871 1.5,1.522 1.5,3.479 l 0,7.021 c 2.278,-1.139 3,-3.619 3,-6 1.257,1.885 1.741,2.244 0.572,4.212 -1.007,1.697 -1.322,3.58 -1.322,5.538 1.5,-2 3,-4 4.5,-6 2.229,3.341 0.34,5.66 -2.25,8.25 2.453,0.818 2.602,0.373 4.018,-1.634 0.649,-0.921 2.732,-1.979 2.732,-0.061 0,1.583 -3.74,2.816 -4.816,3.28 -2.475,1.068 -5.233,1.896 -7.942,1.324 -4.825,-1.018 -7.913,-5.518 -9.803,-9.692 -2.21,-4.92 -3.87,-9.73 -5.18,-14.97"
     id="path4275"
     inkscape:connector-curvature="0"
     style="clip-rule:evenodd;fill:#87ae61;fill-rule:evenodd"
     inkscape:export-filename="/Users/zuj007/Documents/QuinCe/Repository/QuinCe/WebApp/WebContent/resources/image/path4309.png"
     inkscape:export-xdpi="55.842571"
     inkscape:export-ydpi="55.842571" /><path
     d="m 244.58,946.0748 c -2.689,-2.689 -5.113,-5.624 -7.731,-8.38 -2.556,-2.689 -5.47,-4.932 -8.183,-7.448 -2.592,-2.403 -5.114,-4.923 -8.085,-6.867 -1.566,-1.025 -3.267,-1.812 -4.938,-2.648 -1.702,-0.851 -2.041,-0.947 -2.188,-2.806 -0.234,-2.947 -0.4,-5.919 -0.391,-8.876 0.014,-3.964 0.766,-7.834 0.766,-11.782 0,-1.328 -0.618,-4.24 0.455,-5.227 0.62,-0.57 2.206,-1.384 2.837,-0.412 0.629,0.968 0.506,2.453 0.479,3.55 -0.048,2.026 0.237,3.932 0.729,5.896 1.313,-2.627 1.5,-5.362 1.5,-8.25 0.509,0.885 1.498,0.597 2.161,1.305 0.83,0.888 1.007,1.471 0.972,2.698 -0.097,3.358 -2.831,5.152 -1.633,8.747 1.814,-2.722 3.75,-5.598 3.75,-9 0.492,2.627 0.985,5.254 1.478,7.881 l 0.72,3.84 c 0.175,0.93 1.629,1.331 2.303,1.779 l 2.25,-7.5 c 1.477,1.477 3.407,3.02 2.928,5.38 -0.141,0.696 -2.652,5.894 -1.768,5.67 1.799,-0.456 2.891,-2.598 3.576,-4.124 1.52,-3.381 1.555,0.131 3.514,-0.176 -0.469,1.876 -0.797,4.269 -1.855,5.916 -1.193,1.855 -1.064,1.829 -0.395,3.834 l 4.5,-6.75 c 2.172,1.629 3.352,1.957 2.412,4.709 -0.804,2.354 -2.056,4.328 -3.162,6.541 2.594,-0.865 2.953,-2.072 4.427,-4.285 1.063,-1.6 2.262,-2.186 3.656,-0.325 1.266,1.688 0.034,4.352 -1.288,5.462 -1.963,1.648 -3.045,3.276 -3.045,5.898 l 6.75,-7.5 3.092,3.092 c 1.083,1.083 -0.147,2.27 -0.652,3.279 -0.553,1.105 -1.818,1.578 -2.439,2.629 -0.665,1.126 -0.75,2.475 -0.75,3.75 l 6,-6 c 0.915,1.525 2.749,3.341 1.925,5.287 -0.451,1.067 -1.388,1.415 -2.304,1.982 -1.271,0.787 -2.318,2.178 -3.371,3.23 2.716,1.358 3.741,-1.121 6,-2.25 -0.825,3.299 -2.636,5.54 -5.32,7.553 -3.36,2.53 -5.88,2.6 -9.67,0.7"
     id="path4277"
     inkscape:connector-curvature="0"
     style="clip-rule:evenodd;fill:#87ae61;fill-rule:evenodd"
     inkscape:export-filename="/Users/zuj007/Documents/QuinCe/Repository/QuinCe/WebApp/WebContent/resources/image/path4309.png"
     inkscape:export-xdpi="55.842571"
     inkscape:export-ydpi="55.842571" /><path
     d="m 183.08,941.5748 c -1.449,-0.837 -0.75,-3.183 -0.75,-4.5 l 3.75,3 c -0.246,-0.986 -0.24,-2.094 -0.75,-3 -0.553,-0.982 -1.793,-1.336 -2.302,-2.353 -0.432,-0.866 -1.137,-1.619 -1.395,-2.569 -0.298,-1.095 0.476,-2.977 0.696,-4.078 0.932,2.796 1.675,5.337 4.5,6.75 -0.548,-2.741 -1.571,-5.507 -2.843,-7.994 -1.353,-2.647 -0.427,-3.709 0.593,-6.256 0.899,1.799 2.551,3.56 3.062,5.512 0.204,0.777 1.497,3.461 1.512,1.109 0.029,-4.322 -1.894,-8.342 -0.824,-12.621 1.254,2.508 1.697,5.447 3.75,7.5 0,-2.567 -0.262,-5.194 -0.806,-7.706 -0.596,-2.749 -0.704,-2.786 1.556,-4.294 0,0.674 -0.282,1.983 0.192,2.556 0.372,0.449 1.001,0.691 1.308,1.194 0.392,0.645 0.474,1.423 0.708,2.125 0.236,0.707 1.047,1.13 1.542,1.625 0,-2.061 -0.203,-3.947 -1.062,-5.842 -1.19,-2.624 -0.488,-4.582 1.062,-6.908 0.294,0.884 1.628,10.345 3.554,8.078 0.849,-1 -0.093,-4.374 -0.227,-5.587 -0.259,-2.35 -0.335,-4.718 0.423,-6.991 0.805,2.414 1.534,4.546 1.463,7.123 -0.061,2.198 1.552,2.304 1.784,0.07 0.258,-2.473 -0.062,-4.779 -0.274,-7.251 -0.238,-2.782 0.615,-3.727 2.277,-5.942 0.821,1.644 0.75,3.356 0.75,5.142 l 0,2.899 c 0,0.262 1.313,0.634 1.5,0.959 0.458,-1.832 0.655,-3.709 0.718,-5.593 0.052,-1.566 -0.476,-3.995 0.146,-5.461 0.564,-1.334 1.911,2.047 1.977,2.31 0.479,1.905 0.16,4.137 0.16,6.089 0,4.385 -0.268,8.579 -0.677,12.936 -0.199,2.128 -0.014,4.252 -0.082,6.383 -0.052,1.59 -0.941,2.62 -1.876,3.842 -2.567,3.354 -5.372,6.455 -7.151,10.322 -1.813,3.941 -4.485,7.478 -6.095,11.5 -1.214,3.033 -2.427,6.177 -6.148,4.42 -1.076,-0.508 -2.295,-2.771 -2.841,-3.823 -0.85,-1.63 -2.07,-3.04 -2.89,-4.67"
     id="path4279"
     inkscape:connector-curvature="0"
     style="clip-rule:evenodd;fill:#87ae61;fill-rule:evenodd"
     inkscape:export-filename="/Users/zuj007/Documents/QuinCe/Repository/QuinCe/WebApp/WebContent/resources/image/path4309.png"
     inkscape:export-xdpi="55.842571"
     inkscape:export-ydpi="55.842571" /><path
     d="m 162.83,927.3248 c 0.634,0 1.98,0.273 2.531,-0.144 0.414,-0.313 0.599,-0.736 1.219,-0.606 -0.897,-1.794 -3.354,-2.182 -5.306,-2.258 -0.758,-0.03 -0.466,-0.376 -0.551,-0.959 -0.191,-1.303 -1.548,-1.938 -2.394,-2.783 1.049,0 2.415,0.393 3.367,-0.219 0.444,-0.284 0.389,-0.808 0.435,-1.266 0.125,-1.259 -1.655,-0.766 -2.442,-0.766 -1.398,0 -2.396,-0.457 -3.366,-1.517 -1.021,-1.114 3.397,-2.554 4.257,-2.983 -0.668,-0.223 -1.633,-0.955 -2.375,-0.708 -1.283,0.428 -2.089,0.88 -3.329,0.054 -1.136,-0.758 -2.739,-1.953 -0.602,-2.264 1.168,-0.169 2.739,0.515 2.536,-1.231 -0.166,-1.422 -5.516,-3.426 -6.73,-4.101 2.043,0 4.108,0.195 6,-0.75 -1.218,-1.218 -2.472,-1.743 -4.121,-2.155 -0.639,-0.159 -1.73,0.37 -2.09,-0.392 -0.29,-0.618 -0.325,-1.312 -0.539,-1.953 1.404,0 6.026,0.645 3.591,-1.8 -0.834,-0.837 -1.92,-0.526 -2.983,-0.682 -1.549,-0.226 -2.091,-1.619 -2.857,-2.769 2.051,-1.024 3.574,0.692 5.25,-1.5 l -6,-4.5 c 1.355,0.678 4.24,1.771 5.25,0 -2.394,-1.197 -4.723,-1.944 -6,-4.5 2.226,-0.193 3.027,1.111 5.25,0 l -6.75,-5.25 3.663,0 c 0.271,0.142 0.487,0.344 0.648,0.606 0.372,0.35 1.495,-1.163 1.688,-1.356 -2.808,-1.404 -6,-1.532 -6,-5.25 1.282,0.641 2.935,0.208 4.114,0.926 1.444,0.88 2.072,-0.05 3.386,-0.926 -3.517,-1.172 -6.116,-1.298 -8.25,-4.5 1.284,0 2.426,0.088 3.594,0.672 1.355,0.678 2.307,-0.572 3.156,-1.422 -1.541,-0.385 -4.547,-0.165 -5.772,-1.082 -1.035,-0.775 -1.342,-2.262 -1.728,-3.418 2.772,0 4.603,2.147 6.75,0 -1.906,-0.635 -3.859,-1.422 -5.594,-2.445 -1.391,-0.821 -1.541,-2.096 -1.906,-3.555 2.583,0 5.005,1.248 7.5,0 -1.847,-0.923 -3.654,-1.718 -5.614,-2.372 -0.792,-0.264 -1.967,-0.296 -1.962,-1.351 0.002,-0.452 -0.096,-1.391 0.458,-1.583 1.006,-0.348 2.401,0.232 3.354,0.55 0.574,0.191 2.68,1.247 3.189,0.887 0.524,-0.371 0.876,-0.934 1.325,-1.382 -2.43,-1.215 -7.624,-1.108 -8.204,-4.53 -0.345,-2.034 1.322,-2.575 2.985,-2.097 2.319,0.666 3.507,1.448 5.969,0.627 -1.84,-1.227 -3.845,-2.256 -5.795,-3.296 -2.184,-1.165 -1.705,-2.003 -1.705,-4.204 1.375,0.916 2.804,1.685 4.375,2.208 0.491,0.164 0.877,0.559 1.373,0.722 0.631,0.208 1.995,-1.092 2.502,-1.43 -0.961,-0.64 -1.816,-1.475 -2.978,-1.737 -1.052,-0.237 -2.01,-0.309 -2.963,-0.872 -1.577,-0.934 -1.895,-2.482 -2.31,-4.141 2.721,0.907 5.405,2.448 8.25,1.5 -1.317,-1.318 -3.07,-2.52 -4.779,-3.268 -1.082,-0.474 -2.669,-0.888 -2.73,-2.281 -0.078,-1.783 -0.129,-2.116 1.866,-1.962 1.97,0.151 3.605,1.511 5.644,1.511 -0.537,-1.613 -1.177,-2.455 -2.693,-3.221 -2.032,-1.027 -2.557,-2.034 -2.557,-4.279 1.357,0.679 5.037,3.624 5.866,0.838 0.169,-0.569 -4.618,-4.342 -5.116,-5.338 1.106,0 2.45,0.184 3.28,1.005 0.612,0.604 1.288,1.773 1.97,0.495 6.925,9.234 14.566,19.139 19.113,29.813 2.222,5.217 2.616,10.651 2.197,16.252 -0.398,5.341 -3.756,9.926 -6.478,14.462 -2.752,4.587 -1.286,11.623 0.261,16.333 0.842,2.564 1.869,5.065 2.783,7.604 1.171,3.251 1.112,5.687 -0.176,8.907 -1.9,4.751 1.64,9.627 3.854,13.582 1.029,1.84 2.247,3.761 2.925,5.761 0.889,2.623 -0.038,6.134 -0.479,8.784 -2.39,-1.593 -4.691,-3.305 -6.772,-5.289 -2.44,-2.3 -4.36,-5.07 -6.74,-7.44"
     id="path4281"
     inkscape:connector-curvature="0"
     style="clip-rule:evenodd;fill:#87ae61;fill-rule:evenodd"
     inkscape:export-filename="/Users/zuj007/Documents/QuinCe/Repository/QuinCe/WebApp/WebContent/resources/image/path4309.png"
     inkscape:export-xdpi="55.842571"
     inkscape:export-ydpi="55.842571" /><path
     d="m 261.83,930.3248 c -4.803,-5.488 -8.906,-11.364 -14.237,-16.394 -5.762,-5.434 -11.41,-11.063 -17.358,-16.289 -2.864,-2.516 -5.857,-4.864 -8.865,-7.204 -1.439,-1.12 -2.88,-2.239 -4.319,-3.358 -1.273,-0.991 -3.077,-1.861 -3.423,-3.572 -0.592,-2.936 -0.275,-6.355 -0.469,-9.349 -0.276,-4.278 -0.553,-8.556 -0.828,-12.834 1.206,2.413 2.866,4.719 3.321,7.431 0.298,1.774 0.367,4.014 1.39,5.557 0.27,0.408 1.145,0.886 1.304,0.07 0.217,-1.114 -0.527,-2.759 -0.654,-3.86 -0.172,-1.491 -0.084,-2.905 -0.562,-4.352 -0.54,-1.637 -1.38,-3.17 -1.799,-4.847 1.578,2.841 3.307,5.638 4.66,8.594 0.439,0.961 2.041,5.361 3.59,4.906 l -1.5,-10.5 c 2.141,2.141 3.432,4.29 4,7.279 0.363,1.914 0.201,5.471 2.75,5.471 l -0.75,-9 c 1.854,3.706 3.75,6.96 3.75,11.222 0,2.614 1.179,0.552 2.25,0.778 l -0.75,-6.75 c 1.756,2.341 3.4,4.825 4.362,7.608 0.478,1.383 0.775,2.826 0.861,4.288 0,0 -0.165,1.604 0.221,1.604 0.452,0 0.627,0.75 0.556,0.75 3.438,0.041 0.435,-7.696 0,-9 2.047,2.047 3.424,3.404 4.298,6.17 0.941,2.976 2.213,5.864 3.202,8.83 l 0,-9 c 1.61,2.684 3.647,5.264 4.52,8.316 0.908,3.18 1.48,6.368 1.48,9.684 3.773,-1.887 1.786,-7.392 0.75,-10.5 1.632,2.448 2.692,4.669 3.581,7.457 0.685,2.145 1.668,3.244 1.666,5.602 0,0.505 -0.049,1.366 0.417,1.719 0.541,0.409 1.811,-0.351 1.782,-1.003 -0.133,-3.054 -0.98,-6.249 -1.446,-9.274 2.947,3.931 4.593,8.175 4.461,13.112 -0.015,0.544 -0.104,1.25 0.092,1.774 0.12,0.317 1.348,0.212 1.427,-0.223 0.49,-2.704 0.021,-5.914 0.021,-8.664 1.799,2.398 3.438,4.438 4.039,7.443 0.409,2.049 0.052,6.057 2.711,6.057 l -0.75,-6.75 c 0.815,5.711 0.425,10.762 -1.711,16.2 -0.641,1.632 -1.141,4.413 -2.834,4.848 -2.07,0.51 -3.1,0.98 -5.2,-0.07"
     id="path4283"
     inkscape:connector-curvature="0"
     style="clip-rule:evenodd;fill:#8cc641;fill-rule:evenodd"
     inkscape:export-filename="/Users/zuj007/Documents/QuinCe/Repository/QuinCe/WebApp/WebContent/resources/image/path4309.png"
     inkscape:export-xdpi="55.842571"
     inkscape:export-ydpi="55.842571" /><path
     d="m 213.83,881.5748 c 3.057,0.642 -0.921,-9.811 -0.75,-11.25 1.312,2.46 2.783,4.887 3.877,7.454 0.374,0.879 1.466,4.176 2.873,3.796 l -1.5,-10.5 c 1.275,1.701 2.849,3.316 3.565,5.36 0.939,2.677 1.369,5.477 2.435,8.14 2.257,-1.192 0.171,-7.116 0,-9 0.676,0.676 2.016,1.312 2.265,2.31 0.435,1.737 1.041,3.515 1.288,5.289 0.271,1.958 -0.314,4.401 2.447,4.401 l -0.75,-7.5 c 1.914,2.552 4.194,4.474 4.845,7.725 0.377,1.881 0.889,3.788 1.118,5.693 0.104,0.876 0.973,0.837 0.787,1.582 0.422,-1.687 0.75,-3.38 0.75,-5.125 0,-1.541 -0.75,-2.985 -0.75,-4.625 1.606,2.141 3.574,4.19 4.5,6.75 0.513,1.416 0.492,2.954 0.737,4.424 0.228,1.364 1.006,2.561 1.513,3.826 l 0,-9 c 1.825,3.04 3.566,6.071 4.965,9.335 0.623,1.453 1.641,3.088 1.913,4.648 0.233,1.332 -0.128,2.683 -0.128,4.017 1.738,-0.87 1.647,-1.888 1.568,-3.821 -0.091,-2.199 -0.877,-4.604 -1.568,-6.679 1.265,1.265 2.275,2.103 2.648,3.932 0.357,1.758 0.612,3.508 1.498,5.098 0.756,1.355 0.841,2.288 1.162,3.771 0.203,0.937 1.004,2.449 2.191,2.199 l -1.5,-9.75 c 3.378,3.378 4.866,8.015 4.47,12.758 -0.147,1.765 1.519,1.996 2.074,0.309 0.808,-2.453 -0.544,-5.309 -0.544,-7.816 2.789,3.721 3.947,6.991 4.854,11.516 0.208,1.041 0.184,2.669 1.74,1.973 0.646,-0.289 0.156,-5.901 0.156,-6.738 0.849,4.247 1.007,7.648 -0.517,11.762 -0.979,2.645 -2.515,4.246 -5.534,2.751 -2.619,-1.298 -4.524,-4.545 -6.326,-6.749 -2.748,-3.362 -5.164,-6.934 -8.355,-9.91 -2.794,-2.608 -5.846,-4.932 -8.551,-7.637 -3.101,-3.101 -6.171,-6.239 -9.475,-9.126 -3.121,-2.726 -6.476,-5.188 -9.744,-7.731 -1.697,-1.32 -3.394,-2.64 -5.091,-3.959 -1.62,-1.24 -1.18,-2.06 -1.18,-3.9"
     id="path4285"
     inkscape:connector-curvature="0"
     style="clip-rule:evenodd;fill:#87ae61;fill-rule:evenodd"
     inkscape:export-filename="/Users/zuj007/Documents/QuinCe/Repository/QuinCe/WebApp/WebContent/resources/image/path4309.png"
     inkscape:export-xdpi="55.842571"
     inkscape:export-ydpi="55.842571" /><path
     d="m 174.83,915.3248 c 1.939,-4.846 1.764,-9.934 0.75,-15 1.193,0.676 0.899,3.297 1.5,4.5 0.657,-0.438 1.741,-0.724 2.108,-1.491 0.456,-0.954 -0.838,-3.353 -1.358,-4.134 -1.846,-2.77 -1.337,-4.451 0,-7.125 0.859,2.575 0.248,5.373 3,6.75 0,-3.856 -1.703,-7.44 -0.75,-11.25 1.254,2.508 1.697,5.447 3.75,7.5 0.254,-0.761 0.955,-1.735 0.619,-2.577 -0.466,-1.164 -1.138,-2.268 -1.387,-3.51 -0.46,-2.299 -0.556,-4.373 0.018,-6.663 1.921,2.88 2.009,6.509 4.5,9 0,-4.209 -0.339,-8.178 -2.25,-12 3.597,0 3.647,4.942 4.5,7.5 -0.506,-3.293 -2.691,-8.558 0,-11.25 0.571,1.143 1.491,2.074 2.043,3.229 0.837,1.754 1.09,3.918 1.707,5.771 0.455,-0.791 1.389,-0.516 1.5,-1.5 0.093,-0.828 -0.467,-1.721 -0.755,-2.46 -0.911,-2.341 -1.448,-4.898 -2.245,-7.29 1.438,-0.34 2.217,2.73 2.586,3.63 0.793,1.938 1.363,2.37 3.414,2.37 -0.803,-2.408 -1.608,-4.815 -2.41,-7.225 -0.623,-1.874 0.126,-2.252 1.66,-3.275 0,2.869 1.463,5.194 3,7.5 0,-1.84 0.466,-3.959 -0.125,-5.745 -0.307,-0.926 -1.926,-3.156 -0.927,-4.059 1.738,-1.571 2.337,0.357 2.507,1.887 0.278,2.5 0.781,3.648 2.295,5.667 0,-1.782 0.298,-3.87 -0.117,-5.611 -0.295,-1.236 -1.204,-3.274 -0.516,-4.555 0.254,-0.472 1.875,-0.514 2.184,-0.249 0.818,0.701 1.221,2.167 1.626,3.125 1.239,2.936 2.073,5.776 2.073,9.004 0,2.285 0.133,4.567 0.355,6.84 0.171,1.735 0.747,3.251 -0.463,4.68 -2.086,2.461 -4.673,4.458 -6.789,6.944 -2.729,3.206 -5.619,6.131 -8.473,9.205 -3.043,3.277 -5.32,7.376 -7.995,10.956 -2.662,3.562 -5.174,6.79 -7.386,10.659 -1.98,-3 -5.01,-5.95 -3.74,-9.76"
     id="path4287"
     inkscape:connector-curvature="0"
     style="clip-rule:evenodd;fill:#87ae61;fill-rule:evenodd"
     inkscape:export-filename="/Users/zuj007/Documents/QuinCe/Repository/QuinCe/WebApp/WebContent/resources/image/path4309.png"
     inkscape:export-xdpi="55.842571"
     inkscape:export-ydpi="55.842571" /><path
     d="m 269.33,902.5748 c -2.304,-2.88 -5.452,-4.955 -7.729,-7.771 -1.193,-1.477 -2.067,-2.944 -3.629,-4.088 -1.743,-1.277 -3.365,-2.68 -4.939,-4.16 -7.199,-6.766 -14.772,-12.886 -22.487,-19.059 -3.351,-2.681 -6.561,-5.333 -10.274,-7.483 -1.782,-1.031 -3.338,-2.392 -5.062,-3.508 -1.479,-0.956 -3.27,-1.315 -4.701,-2.303 -1.218,-0.839 -0.953,-2.745 -1.237,-4.02 -0.527,-2.374 -1.092,-4.74 -1.689,-7.097 -1.2,-4.734 -2.535,-9.437 -4.251,-14.012 1.052,2.103 2.517,4.066 3.095,6.378 0.201,0.803 1.147,5.311 2.651,4.521 2.775,-1.456 0.542,-3.333 -0.3,-5.478 -1.142,-2.91 -2.55,-5.629 -3.946,-8.422 2.041,1.225 3.991,2.492 5.251,4.572 1.796,2.964 2.473,6.487 3.749,9.678 1.684,-1.684 1.296,-2.073 0.483,-4.346 -0.911,-2.551 -1.822,-5.103 -2.733,-7.654 2.154,1.616 3.345,2.426 4.137,5.018 0.797,2.609 1.947,5.07 2.613,7.732 3.07,-1.534 1.133,-6.368 -0.75,-8.25 1.208,0.483 2.788,0.627 3.697,1.66 1.12,1.272 1.603,3.54 2.442,5.042 0.993,1.778 2.194,3.41 3.414,5.037 1.022,1.362 1.173,3.189 1.696,4.761 1.061,-2.123 -0.151,-3.752 -0.992,-5.856 -0.92,-2.298 -1.839,-4.596 -2.758,-6.894 4.027,4.027 6.896,8.99 9,14.25 0,-3.583 -0.361,-7.086 -1.5,-10.5 3.173,4.231 5.537,8.978 8.25,13.5 0,-3.151 -1.271,-6.064 -2.25,-9 2.806,2.806 5.954,4.505 7.82,8.148 1.901,3.712 3.069,7.628 4.93,11.352 1.348,-0.704 0.502,-3.076 0.191,-4.127 -0.759,-2.57 -1.166,-5.247 -1.691,-7.873 1.098,2.317 2.195,4.634 3.293,6.951 1,2.111 3.249,5.178 3.419,7.507 0.139,1.898 1.867,-0.478 2.118,-0.718 0.714,-0.685 -1.76,-6.671 -2.08,-7.74 2.442,1.832 3.355,2.582 4.146,5.611 0.771,2.951 1.992,5.915 3.354,8.639 1.194,-3.582 0.128,-6.991 -0.75,-10.5 1.836,3.365 4.045,6.244 4.891,10.056 0.962,4.333 1.85,8.619 2.477,13.015 0.651,4.557 1.302,9.115 1.953,13.672 0.143,0.995 1.133,3.396 -0.362,3.64 -1.35,0.23 -1.59,0.8 -2.95,0.12"
     id="path4289"
     inkscape:connector-curvature="0"
     style="clip-rule:evenodd;fill:#87ae61;fill-rule:evenodd"
     inkscape:export-filename="/Users/zuj007/Documents/QuinCe/Repository/QuinCe/WebApp/WebContent/resources/image/path4309.png"
     inkscape:export-xdpi="55.842571"
     inkscape:export-ydpi="55.842571" /><path
     d="m 179.33,859.8248 0,-8.25 c 1.239,1.239 2.411,5.578 4.5,5.25 -0.941,-3.766 -2.059,-7.484 -3,-11.25 1.067,1.601 1.759,3.285 2.225,5.147 0.164,0.658 0.67,1.216 1.074,1.734 0.69,0.883 0.854,1.831 1.201,2.869 0.639,-0.639 1.625,-1.125 1.266,-2.202 -0.408,-1.224 -0.815,-2.448 -1.224,-3.672 -0.74,-2.224 -2.292,-4.477 -2.292,-6.876 0.926,2.222 1.852,4.444 2.777,6.667 0.367,0.879 0.782,3.211 2.192,3.101 0.576,-0.045 -1.745,-13.596 -1.97,-15.017 1.987,2.982 3.628,6.261 4.5,9.75 1.181,-2.363 0.107,-4.929 -0.661,-7.233 -0.856,-2.569 -2.135,-4.22 -0.089,-6.267 1.917,2.875 1.902,7.326 5.25,9 0,-2.625 -0.173,-4.869 -1.377,-7.243 -1.156,-2.278 -1.687,-3.816 -0.873,-6.257 3.115,3.115 4.5,6.874 4.5,11.25 2.4,-0.801 2.308,-1.083 1.715,-3.704 -0.576,-2.553 -1.638,-5.064 -2.465,-7.546 3.438,5.156 6.775,11.288 7.792,17.448 0.476,2.885 1.955,5.22 1.986,8.214 0.026,2.497 -3.745,4.304 -5.33,5.889 -10.276,10.278 -21.934,20.23 -29.198,32.949 -0.836,-2.923 -1.724,-5.251 -1.027,-8.286 0.731,-3.191 2.07,-5.703 3.747,-8.497 1.708,-2.847 3.092,-5.661 4.313,-8.742 1.25,-3.17 1.01,-4.9 0.45,-8.22"
     id="path4291"
     inkscape:connector-curvature="0"
     style="clip-rule:evenodd;fill:#87ae61;fill-rule:evenodd"
     inkscape:export-filename="/Users/zuj007/Documents/QuinCe/Repository/QuinCe/WebApp/WebContent/resources/image/path4309.png"
     inkscape:export-xdpi="55.842571"
     inkscape:export-ydpi="55.842571" /><path
     d="m 260.33,857.5748 c -6.686,-5.348 -13.713,-10.88 -21.094,-15.219 -3.488,-2.05 -6.564,-4.66 -10.024,-6.758 -4.111,-2.493 -8.198,-5.035 -12.451,-7.282 -3.723,-1.966 -7.591,-3.608 -11.308,-5.59 -1.446,-0.771 -3.31,-1.148 -4.541,-2.255 -1.369,-1.231 -2.274,-2.949 -3.598,-4.256 -2.962,-2.927 -4.942,-6.927 -6.845,-10.594 -2.237,-4.312 -4.893,-8.385 -7.39,-12.546 2.983,3.978 6.767,7.272 9.75,11.25 -1.105,-4.42 -3.995,-7.99 -6,-12 1.925,1.924 4.663,3.346 6.24,5.582 1.312,1.859 1.462,4.269 2.827,6.116 1.626,2.2 1.646,0.059 1.326,-1.69 -0.548,-2.996 -3.048,-5.815 -4.394,-8.508 4.085,3.063 7.074,7.187 8.965,11.913 0.902,2.256 3.602,0.804 2.493,-0.98 -1.729,-2.783 -3.154,-5.798 -4.708,-8.683 2.106,2.106 4.213,4.214 6.32,6.32 0.733,0.733 0.664,1.832 1.18,2.68 0.655,1.076 1.682,1.862 2.25,3 1.429,-2.858 -2.083,-7 -3,-9.75 3.25,4 6.5,8 9.75,12 1.675,-0.833 -2.585,-7.756 -3,-9 3.5,4.5 7,9 10.5,13.5 0.62,-1.861 0.778,-2.18 0,-4.125 -1.02,-2.55 -2.225,-4.838 -3.75,-7.125 3.409,1.137 4.535,4.023 7.403,5.936 0.801,0.534 1.005,2.731 1.642,3.57 1.255,1.655 1.564,3.57 2.205,5.494 l -3,-10.5 c 2.76,0 5.091,4.395 6.327,6.52 1.104,1.897 1.485,5.48 4.173,5.48 l -3.75,-8.25 c 2.646,1.587 5.2,3.251 6.395,6.236 0.817,2.044 1.636,4.089 2.453,6.133 0.189,0.473 -0.073,1.618 0.355,1.808 0.4,0.177 1.063,0.417 1.297,0.823 0,-1.717 0.512,-3.565 0,-5.25 -0.189,-0.625 -0.672,-1.15 -1.064,-1.651 -0.684,-0.873 -0.843,-1.823 -1.186,-2.849 3.428,2.571 5.111,5.497 6.905,9.292 0.533,1.129 0.787,2.987 2.316,2.222 0.812,-0.406 0.165,-0.855 -0.096,-1.372 -0.437,-0.87 -0.126,-2.443 -0.126,-3.392 1.139,3.416 2.947,6.436 4.589,9.615 1.638,3.171 2.638,6.537 3.964,9.833 1.54,3.83 5.45,12.39 -0.31,14.31"
     id="path4293"
     inkscape:connector-curvature="0"
     style="clip-rule:evenodd;fill:#8cc641;fill-rule:evenodd"
     inkscape:export-filename="/Users/zuj007/Documents/QuinCe/Repository/QuinCe/WebApp/WebContent/resources/image/path4309.png"
     inkscape:export-xdpi="55.842571"
     inkscape:export-ydpi="55.842571" /><path
     d="m 190.58,805.8248 c 2.132,2.132 3.868,4.618 6,6.75 -1.075,-3.224 -2.618,-6.177 -4.5,-9 0.622,-0.154 0.905,0.128 0.75,0.75 l 0,-2.25 c 3.232,3.232 4.037,7.479 6.554,11.063 0.369,0.526 1.182,0.231 1.373,-0.291 0.352,-0.959 -0.288,-2.159 -0.565,-3.042 -0.724,-2.307 -2.861,-4.523 -2.861,-6.98 2.176,2.176 4.325,4.274 6.185,6.736 1.176,1.556 3.178,3.893 2.815,6.014 0.505,-0.887 1.384,-0.75 2.25,-0.75 -1.161,-2.129 -2.323,-4.259 -3.484,-6.389 -0.272,-0.5 -1.37,-1.689 -0.778,-2.246 0.507,-0.478 0.436,-0.739 -0.237,-1.115 3.466,3.466 6.42,7.425 8.25,12 1.869,-3.735 -1.111,-5.583 -2.25,-9 3,3.5 6,7 9,10.5 1.458,-2.915 -1.326,-6.229 -2.25,-9 3.25,4.5 6.5,9 9.75,13.5 0.785,-1.571 1.334,-3.625 0.275,-5.212 -0.986,-1.48 -2.779,-3.352 -2.525,-5.288 1.425,0.712 2.431,2.001 3.825,2.756 1.688,0.914 1.274,1.894 2.239,3.34 0.896,1.343 1.633,2.745 2.144,4.279 0.187,0.557 0.83,0.823 1.226,1.192 0.728,0.68 0.316,1.826 0.316,2.682 l -2.25,-10.5 c 2.401,0 2.921,2.944 4.189,4.599 1.948,2.541 3.618,5.169 4.811,8.151 1.052,-1.052 1.512,-1.523 0.802,-2.91 -1.035,-2.021 -2.036,-4.06 -3.052,-6.09 1.585,0.792 2.795,2.045 4.031,3.281 0.518,0.519 0.818,1.167 1.141,1.812 -0.076,0.369 0.002,0.679 0.233,0.931 0.196,-0.093 0.395,-0.101 0.595,-0.024 0.999,1.447 1.551,3.151 2.102,4.804 0.228,0.683 0.731,1.239 0.898,1.946 0.21,0.89 -0.228,1.693 0.75,2.25 0.915,-3.661 -0.178,-6.641 -2.25,-9.75 2.338,1.403 4.304,2.988 5.947,5.18 1.599,2.13 1.798,5.046 2.303,7.57 2.392,-2.392 0.75,-3.801 0.75,-6.75 0.893,1.786 2.117,3.38 3.024,5.157 1.112,2.177 1.626,4.69 2.508,6.974 0.71,1.84 4.479,12.24 2.292,13.453 -1.929,1.071 -2.648,0.607 -4.267,-0.688 -2.168,-1.735 -4.333,-3.471 -6.567,-5.12 -4.456,-3.288 -9.084,-6.329 -13.683,-9.411 -9.009,-6.039 -18.289,-12.18 -28.189,-16.67 -4.178,-1.895 -9.091,-3.654 -11.968,-7.328 -2.79,-3.605 -5.56,-7.752 -7.62,-11.862"
     id="path4295"
     inkscape:connector-curvature="0"
     style="clip-rule:evenodd;fill:#87ae61;fill-rule:evenodd"
     inkscape:export-filename="/Users/zuj007/Documents/QuinCe/Repository/QuinCe/WebApp/WebContent/resources/image/path4309.png"
     inkscape:export-xdpi="55.842571"
     inkscape:export-ydpi="55.842571" /><path
     d="m 176.33,846.3248 c -1.801,-3.603 -3.457,-7.339 -6,-10.5 -2.562,-3.187 -4.902,-6.054 -6.75,-9.75 l 4.5,2.25 c -0.731,-1.464 -1.992,-2.494 -3,-3.75 -1.072,-1.334 -1.714,-2.891 -2.25,-4.5 2.651,1.768 3.247,4.5 6.75,4.5 -0.243,-0.731 -0.249,-1.749 -0.827,-2.327 -0.744,-0.744 -1.59,-1.396 -2.226,-2.243 -1.253,-1.671 -2.197,-3.014 -2.197,-5.18 2.234,1.49 4.18,3.523 6.268,5.212 0.456,0.369 1.584,1.385 1.86,0.194 0.18,-0.779 -2.399,-2.93 -2.92,-3.502 -1.117,-1.229 -5.692,-4.563 -3.397,-6.072 1.264,-0.831 5.697,5.304 6.439,6.418 0.454,-0.681 1.156,-1.311 1.407,-2.108 0.187,-0.589 -2.141,-2.625 -2.563,-3.094 -1.583,-1.758 -4.094,-3.413 -4.094,-6.048 2.993,2.994 5.51,6.44 9.75,7.5 -1.021,-2.043 -2.301,-3.801 -3.916,-5.417 -0.881,-0.881 -1.763,-1.762 -2.644,-2.643 -1.118,-1.118 -0.94,-1.707 -0.94,-3.19 0.987,0.494 2.157,0.751 3,1.5 0.953,0.847 1.436,2.185 2.362,3.112 0.407,0.407 3.149,3.91 4.085,3.554 1.14,-0.433 -2.756,-4.643 -3.002,-4.963 -1.526,-1.983 -4.195,-4.253 -4.195,-6.953 2.452,2.452 4.707,6.014 7.932,7.509 2.162,1.003 0.361,-2.115 -0.078,-2.708 -1.91,-2.575 -3.775,-5.162 -5.604,-7.802 1.442,0.962 3.001,1.875 3.984,3.352 0.439,0.659 2.943,3.434 2.766,4.148 0.362,-0.63 2.161,-0.915 1.717,-1.916 -0.545,-1.229 -2.146,-3.265 -3.217,-4.084 3.328,4.438 6.516,9.274 9.048,14.215 1.218,2.376 2.154,4.881 3.146,7.356 0.617,1.543 2.606,4.026 1.614,5.592 -1.773,2.8 -4.267,5.441 -6.493,7.878 -3.99,4.38 -6.76,9.73 -10.31,14.46"
     id="path4297"
     inkscape:connector-curvature="0"
     style="clip-rule:evenodd;fill:#87ae61;fill-rule:evenodd"
     inkscape:export-filename="/Users/zuj007/Documents/QuinCe/Repository/QuinCe/WebApp/WebContent/resources/image/path4309.png"
     inkscape:export-xdpi="55.842571"
     inkscape:export-ydpi="55.842571" /><path
     d="m 178.58,786.3248 c -0.997,-0.997 -2.409,-3.632 -2.244,-5.004 0.273,-2.277 -3.879,-5.975 -5.256,-7.746 1.813,0 3.437,0.327 4.741,1.673 1.527,1.577 2.064,4.217 4.259,5.077 0.639,0.25 0.698,1.216 1.357,0.087 0.328,-0.563 -0.533,-1.995 -0.783,-2.474 -1.235,-2.367 -3.221,-4.009 -5.074,-5.863 2.329,0.776 4.776,2.053 5.922,4.344 1.126,2.252 3.447,3.896 4.578,6.156 0.462,-0.924 0.733,-1.496 0.144,-2.408 -0.874,-1.352 -1.189,-2.886 -2.006,-4.256 -0.829,-1.394 -2.974,-2.753 -3.421,-4.316 -0.213,-0.744 1.84,0.194 2.021,0.312 1.193,0.773 2.029,2.003 2.88,3.113 0.868,1.133 1.816,2.241 2.826,3.25 0.368,0.368 0.217,0.967 0.556,1.306 0.491,0.492 1.068,-10e-4 1.5,0.75 0,-3.635 -2.818,-6.569 -5.25,-9 3.27,0.817 5.713,2.727 7.714,5.581 1.174,1.674 2.019,4.553 4.286,3.419 l -5.25,-9 c 2.955,0 3.295,1.794 5.277,3.778 2.214,2.213 3.735,4.909 5.731,7.272 0.803,0.952 0.763,-0.213 0.991,-0.55 0.724,-1.067 0.657,-0.89 -0.187,-2.155 -1.773,-2.658 -3.544,-5.326 -5.813,-7.595 1.641,0.82 3.755,1.308 5.025,2.712 0.705,0.779 0.856,1.988 1.417,2.873 0.524,0.827 1.445,1.316 2.101,2.027 1.015,1.102 0.075,3.912 2.184,1.947 1.191,-1.111 -3.226,-6.808 -3.977,-8.059 4.766,0 7.639,7.639 10.5,10.5 0,-3.319 -1.445,-5.945 -3.75,-8.25 2.789,0 4.034,1.575 5.553,3.83 1.854,2.755 3.855,5.408 5.697,8.17 0,-1.432 0.56,-3.118 0,-4.5 -0.279,-0.688 -1.126,-0.885 -1.5,-1.5 -0.415,-0.682 -0.502,-1.506 -0.75,-2.25 4.22,3.166 5.92,7.893 9,12 l 0,-3.75 c 1.414,1.886 2.6,3.874 3.477,6.065 0.914,2.285 0.702,4.113 2.523,5.935 0.835,-1.67 0.75,-3.438 0.75,-5.25 2.589,3.884 3.187,8.623 5.25,12.75 1.74,-0.992 -0.24,-3.508 1.5,-4.5 1.925,3.848 4.5,7.581 4.5,12 -2.717,-0.453 -4.854,-0.525 -6.893,-2.488 -2.317,-2.232 -5.039,-3.829 -7.897,-5.279 -1.293,-0.656 -2.623,-1.106 -3.961,-1.648 -1.388,-0.562 -2.472,-1.563 -3.778,-2.261 -1.346,-0.719 -2.941,-0.944 -4.366,-1.473 -1.704,-0.633 -2.972,-2.057 -4.681,-2.626 -6.677,-2.226 -12.569,-5.251 -19.58,-6.386 -1.409,-0.229 -2.498,-0.986 -3.716,-1.673 -1.334,-0.753 -2.662,-1.009 -4.142,-1.338 -3.47,-0.774 -6.7,-2.013 -9.99,-3.329"
     id="path4299"
     inkscape:connector-curvature="0"
     style="clip-rule:evenodd;fill:#87ae61;fill-rule:evenodd"
     inkscape:export-filename="/Users/zuj007/Documents/QuinCe/Repository/QuinCe/WebApp/WebContent/resources/image/path4309.png"
     inkscape:export-xdpi="55.842571"
     inkscape:export-ydpi="55.842571" /><path
     d="m 156.08,808.8248 c 0.357,0.629 1.289,0.999 1.983,0.814 1.791,-0.476 0.043,-1.788 -0.496,-2.327 -1.583,-1.583 -3.014,-3.066 -3.737,-5.238 0.895,0.447 3.562,2.775 4.588,2.031 0.922,-0.669 -1.113,-2.585 -1.496,-2.92 -1.58,-1.382 -2.418,-2.338 -3.092,-4.361 1.421,0.474 2.571,1.071 3.639,2.139 1.282,1.283 2.092,0.38 3.111,-0.639 -2.184,-1.456 -6,-2.843 -6,-6 0.667,0.223 7.624,4.872 6.455,1.364 -1.116,-3.345 -5.683,-2.179 -4.205,-6.614 1.347,0.673 2.118,1.677 2.936,2.903 0.729,1.093 2.677,1.218 3.814,1.597 -1.176,-3.526 -4.5,-5.024 -4.5,-9 1.174,0.587 2.154,1.42 3.083,2.335 1.388,1.369 2.542,1.415 4.417,1.415 l -6,-6 c 3.463,-1.731 6.381,0.959 8.641,3.329 2.52,2.642 4.312,4.005 4.209,7.88 -0.054,1.984 -2.934,2.861 -3.667,4.587 -1.056,2.487 -2.091,4.761 -3.469,7.15 -2.654,4.602 -5.31,9.203 -7.964,13.804 -1.27,-2.573 -2.24,-5.34 -2.24,-8.249"
     id="path4301"
     inkscape:connector-curvature="0"
     style="clip-rule:evenodd;fill:#87ae61;fill-rule:evenodd"
     inkscape:export-filename="/Users/zuj007/Documents/QuinCe/Repository/QuinCe/WebApp/WebContent/resources/image/path4309.png"
     inkscape:export-xdpi="55.842571"
     inkscape:export-ydpi="55.842571" /><path
     d="m 121.58,815.5748 c 0,-2.728 0.284,-3.662 2.475,-5.583 2.373,-2.081 5.511,-2.806 8.425,-3.734 2.8,-0.892 11.983,-4.695 13.376,-0.031 0.711,2.375 -0.031,4.437 -2.249,5.63 -2.5,1.345 -4.868,2.497 -7.582,3.401 -2.217,0.739 -4.113,2.565 -6.602,2.565 l -5.142,0 c -1.16,0 -2,-1.538 -2.71,-2.248"
     id="path4303"
     inkscape:connector-curvature="0"
     style="clip-rule:evenodd;fill:#feda3c;fill-rule:evenodd"
     inkscape:export-filename="/Users/zuj007/Documents/QuinCe/Repository/QuinCe/WebApp/WebContent/resources/image/path4309.png"
     inkscape:export-xdpi="55.842571"
     inkscape:export-ydpi="55.842571" /><path
     d="m 110.33,814.0748 c -0.354,-1.423 0.905,-0.413 1.438,-0.093 1.123,0.673 2.396,-0.74 3.062,-1.407 -1.153,-0.576 -2.581,-1.158 -3.438,-2.153 -0.404,-0.47 -0.089,-0.757 0.438,-0.847 1.09,-0.186 2.048,1.472 2.916,-0.314 0.392,-0.806 0.917,-0.883 0.18,-1.534 -0.39,-0.344 -1.63,-1.103 -1.616,-1.707 0.009,-0.373 1.977,-0.218 2.317,-0.275 1.168,-0.197 1.714,-1.192 2.203,-2.17 -1.268,0.125 -4.094,-1.571 -2.173,-2.873 1.115,-0.755 2.839,0.589 3.673,-0.877 -1.322,-0.661 -2.171,-0.922 -2.271,-2.517 -0.051,-0.797 -0.305,-1.789 0.751,-1.946 1.197,-0.178 3.044,1.25 4.065,0.597 1.154,-0.738 -0.459,-2.208 -1.182,-2.416 -0.74,-0.212 -2.414,-0.618 -1.849,-1.747 0.6,-1.201 1.23,-1.611 2.307,-1.032 0.612,0.33 2.539,-0.723 2.537,-1.441 -0.002,-0.856 -2.417,-2.115 -2.858,-2.999 1.812,0 3.58,0.085 5.25,-0.75 -1.311,-1.311 -2.572,-2.25 -4.5,-2.25 0.525,-1.049 1.036,-1.643 2.094,-2.172 0.904,-0.452 2.422,0.598 2.879,-0.729 0.429,-1.246 -0.596,-1.59 -1.577,-1.599 -1.134,-0.01 -1.414,-0.535 -1.896,-1.5 1.436,0 5.891,0.306 5.416,-2.346 -0.268,-1.5 -3.697,-0.654 -4.666,-0.654 0.889,-0.889 2.208,-2.322 3.579,-2.289 0.486,0.012 3.027,-0.928 2.206,-1.813 -0.858,-0.925 -2.037,0.364 -2.925,0.109 -0.883,-0.253 -0.651,-2.213 -0.585,-2.855 0.17,-1.653 3.809,0.138 4.803,-1.38 0.72,-1.099 0.473,-1.886 -0.835,-2.174 -0.589,-0.13 -1.038,-0.152 -1.607,0.157 -1.136,0.617 -1.305,0.284 -2.384,-0.255 1.178,-0.67 0.961,-2.673 1.5,-3.75 0.347,0.61 2.233,1.069 2.908,1.199 1.464,0.283 1.882,-2.017 0.614,-2.581 -1.002,-0.446 -2.206,0.302 -3.151,-0.631 -0.481,-0.475 -0.786,-2.287 0.097,-2.483 1.345,-0.299 4.883,0.325 3.946,-2.333 -0.429,-1.218 -2.311,0.016 -3.079,0.071 -0.837,0.06 -0.894,-1.891 -0.367,-2.187 1.323,-0.743 4.281,0.951 4.281,-1.69 0,-3.241 -4.244,0.563 -4.531,-2.788 -0.329,-3.841 4.233,1.305 4.511,-1.732 0.169,-1.84 -3.596,-2.431 -4.479,-3.594 1.626,-0.813 2.522,-1.548 4.417,-1.358 1.59,0.159 4.509,-0.132 5.897,0.682 0.662,0.388 -0.113,4.107 -0.159,4.743 -0.176,2.466 -0.334,4.932 -0.64,7.386 -1.135,9.122 -3.417,18.179 -6.354,26.88 -2.965,8.784 -6.94,17.001 -10.974,25.323 -1.613,3.328 -2.579,6.877 -4.128,10.192 -1.23,2.61 -4.78,0.606 -6.08,-1.098"
     id="path4305"
     inkscape:connector-curvature="0"
     style="clip-rule:evenodd;fill:#dabd5b;fill-rule:evenodd"
     inkscape:export-filename="/Users/zuj007/Documents/QuinCe/Repository/QuinCe/WebApp/WebContent/resources/image/path4309.png"
     inkscape:export-xdpi="55.842571"
     inkscape:export-ydpi="55.842571" /><path
     d="m 108.83,807.3248 c -0.645,0.645 -1.224,1.357 -1.916,1.956 -0.717,0.621 -2.681,-1.466 -3.334,-1.956 l 5.25,0"
     id="path4307"
     inkscape:connector-curvature="0"
     style="clip-rule:evenodd;fill:#feda3c;fill-rule:evenodd"
     inkscape:export-filename="/Users/zuj007/Documents/QuinCe/Repository/QuinCe/WebApp/WebContent/resources/image/path4309.png"
     inkscape:export-xdpi="55.842571"
     inkscape:export-ydpi="55.842571" /><path
     d="m 128.33,734.5748 c 2.874,-0.958 5.525,-1.598 8.565,-1.476 1.079,0.043 5.707,0.146 4.935,2.226 -0.362,0.979 -4.237,0.859 -4.982,0.828 -1.333,-0.056 -2.822,-0.667 -4.121,-0.997 -1.62,-0.407 -2.73,-0.581 -4.41,-0.581"
     id="path4309"
     inkscape:connector-curvature="0"
     style="clip-rule:evenodd;fill:#9a7f61;fill-rule:evenodd"
     inkscape:export-filename="/Users/zuj007/Documents/QuinCe/Repository/QuinCe/WebApp/WebContent/resources/image/path4309.png"
     inkscape:export-xdpi="55.842571"
     inkscape:export-ydpi="55.842571" /><metadata
     id="metadata4311"><rdf:RDF><cc:Work><dc:format>image/svg+xml</dc:format><dc:type
           rdf:resource="http://purl.org/dc/dcmitype/StillImage" /><cc:license
           rdf:resource="http://creativecommons.org/publicdomain/zero/1.0/" /><dc:publisher><cc:Agent
             rdf:about="http://openclipart.org/"><dc:title>Openclipart</dc:title></cc:Agent></dc:publisher><dc:title>quince</dc:title><dc:date>2009-05-22T18:02:59</dc:date><dc:description>source:\n\nA California Alphabet &amp; coloring book\n\nUSDA Farm Service Agency\nwww.fsa.usda.gov/ca/agforkids.htm\n\ncleaned up and colored by me</dc:description><dc:source>https://openclipart.org/detail/26153/quince-by-johnny_automatic</dc:source><dc:creator><cc:Agent><dc:title>johnny_automatic</dc:title></cc:Agent></dc:creator><dc:subject><rdf:Bag><rdf:li>externalsource</rdf:li><rdf:li>food</rdf:li><rdf:li>fruit</rdf:li><rdf:li>pome</rdf:li><rdf:li>quince</rdf:li></rdf:Bag></dc:subject></cc:Work><cc:License
         rdf:about="http://creativecommons.org/publicdomain/zero/1.0/"><cc:permits
           rdf:resource="http://creativecommons.org/ns#Reproduction" /><cc:permits
           rdf:resource="http://creativecommons.org/ns#Distribution" /><cc:permits
           rdf:resource="http://creativecommons.org/ns#DerivativeWorks" /></cc:License></rdf:RDF></metadata></svg>