<svg xmlns="http://www.w3.org/2000/svg" xmlns:xlink="http://www.w3.org/1999/xlink" version="1.0" x="0px" y="0px" viewBox="0 0 24 24" enable-background="new 0 0 24 24" xml:space="preserve"><g><path style="stroke:none;stroke-opacity:1;fill:#bbbbbb;fill-opacity:1" d="M10.8,16.5l-1-0.9l-1.4,0.2c-0.9,0.1-1.8-0.5-2-1.4l-0.2-1.3l-0.1,0L3,19.3l3.6-0.5L8.4,22l2.6-5.3   C10.9,16.6,10.9,16.6,10.8,16.5z"></path><path style="stroke:none;stroke-opacity:1;fill:#bbbbbb;fill-opacity:1" d="M17.9,13.1L17.9,13.1l-0.3,1.3c-0.2,0.8-0.9,1.4-1.7,1.4h0c-0.1,0-0.2,0-0.2,0l-1.4-0.2l-1,0.9c-0.1,0.1-0.1,0.1-0.2,0.2   l2.6,5.3l1.8-3.1l3.6,0.5L17.9,13.1z"></path></g><g><path style="stroke:none;stroke-opacity:1;fill:#bbbbbb;fill-opacity:1" d="M18.6,6.4l-1.7-0.8l-0.3-1.8c-0.1-0.4-0.5-0.7-0.9-0.6l-1.9,0.3l-1.4-1.3c-0.3-0.3-0.8-0.3-1.1,0l-1.4,1.3L8.3,3.2   C7.8,3.1,7.5,3.4,7.4,3.8L7.1,5.6L5.4,6.4C5,6.6,4.9,7,5.1,7.4L5.9,9l-0.8,1.6c-0.2,0.4,0,0.8,0.3,1l1.7,0.8l0.3,1.8   c0.1,0.4,0.5,0.7,0.9,0.6l1.9-0.3l1.4,1.3c0.3,0.3,0.8,0.3,1.1,0l1.4-1.3l1.9,0.3c0.4,0.1,0.8-0.2,0.9-0.6l0.3-1.8l1.7-0.8   c0.4-0.2,0.5-0.6,0.3-1L18.1,9l0.8-1.6C19.1,7,19,6.6,18.6,6.4z"></path></g></svg>