<?xml version="1.0" encoding="UTF-8" standalone="no"?>
<svg
   xmlns:dc="http://purl.org/dc/elements/1.1/"
   xmlns:cc="http://creativecommons.org/ns#"
   xmlns:rdf="http://www.w3.org/1999/02/22-rdf-syntax-ns#"
   xmlns:svg="http://www.w3.org/2000/svg"
   xmlns="http://www.w3.org/2000/svg"
   id="svg6"
   xml:space="preserve"
   enable-background="new 0 0 24 24"
   viewBox="0 0 24 24"
   y="0px"
   x="0px"
   version="1.0"><metadata
     id="metadata12"><rdf:RDF><cc:Work
         rdf:about=""><dc:format>image/svg+xml</dc:format><dc:type
           rdf:resource="http://purl.org/dc/dcmitype/StillImage" /><dc:title></dc:title></cc:Work></rdf:RDF></metadata><defs
     id="defs10" /><path
     style="fill:#bbbbbb;fill-opacity:1"
     id="path2"
     d="M18,2H6C4.9,2,4,2.9,4,4v16c0,1.1,0.9,2,2,2h12c1.1,0,2-0.9,2-2V4C20,2.9,19.1,2,18,2z M18,8H6V4h12V8z M9,12H7v-2h2V12z   M13,12h-2v-2h2V12z M9,16H7v-2h2V16z M13,16h-2v-2h2V16z M9,20H7v-2h2V20z M13,20h-2v-2h2V20z M17,12h-2v-2h2V12z M17,16h-2v-2h2  V16z M17,20h-2v-2h2V20z" /><rect
     style="fill:#bbbbbb;fill-opacity:1"
     id="rect4"
     height="2"
     width="2"
     y="5"
     x="15" /></svg>