<?xml version="1.0" encoding="UTF-8" standalone="no"?>
<svg
   data-name="Layer 1"
   viewBox="0 0 32 32"
   x="0px"
   y="0px"
   version="1.1"
   id="svg144"
   width="32"
   height="32"
   xmlns="http://www.w3.org/2000/svg"
   xmlns:svg="http://www.w3.org/2000/svg">
  <defs
     id="defs148" />
  <path
     d="M 14,4 A 1,1 0 0 0 13,3 H 12.54 A 4,4 0 0 0 8.6,6.34 L 7.65,12 H 6 a 1,1 0 0 0 0,2 H 7.31 L 5.43,25.33 A 2,2 0 0 1 3.43,27 H 3 a 1,1 0 0 0 0,2 H 3.46 A 4,4 0 0 0 7.4,25.66 L 9.34,14 H 11 a 1,1 0 0 0 0,-2 H 9.67 l 0.9,-5.37 a 2,2 0 0 1 2,-1.67 H 13 A 1,1 0 0 0 14,4 Z"
     id="path132" />
  <path
     d="m 24.53,11.15 a 1,1 0 0 0 -1.38,0.32 l -1.65,2.64 -1.65,-2.64 a 1.0016986,1.0016986 0 0 0 -1.7,1.06 l 2.17,3.47 -2.17,3.47 a 1,1 0 0 0 0.32,1.38 1,1 0 0 0 1.38,-0.32 l 1.65,-2.64 1.65,2.64 a 1,1 0 0 0 1.38,0.32 1,1 0 0 0 0.32,-1.38 L 22.68,16 24.85,12.53 a 1,1 0 0 0 -0.32,-1.38 z"
     id="path134" />
  <path
     d="m 16.6,9.2 a 1,1 0 0 0 -1.4,0.2 11.63,11.63 0 0 0 0,13.2 1,1 0 0 0 0.8,0.4 1,1 0 0 0 0.6,-0.2 1,1 0 0 0 0.2,-1.4 9.52,9.52 0 0 1 0,-10.8 1,1 0 0 0 -0.2,-1.4 z"
     id="path136" />
  <path
     d="m 27.8,9.4 a 1,1 0 0 0 -1.6,1.2 9.52,9.52 0 0 1 0,10.8 1,1 0 0 0 0.2,1.4 1,1 0 0 0 0.6,0.2 1,1 0 0 0 0.8,-0.4 11.63,11.63 0 0 0 0,-13.2 z"
     id="path138" />
  <text
     x="0"
     y="47"
     fill="#000000"
     font-size="5px"
     font-weight="bold"
     font-family="'Helvetica Neue', Helvetica, Arial-Unicode, Arial, Sans-serif"
     id="text140">Created by Daniil Churakov</text>
  <text
     x="0"
     y="52"
     fill="#000000"
     font-size="5px"
     font-weight="bold"
     font-family="'Helvetica Neue', Helvetica, Arial-Unicode, Arial, Sans-serif"
     id="text142">from the Noun Project</text>
</svg>
