<?xml version="1.0" encoding="UTF-8" standalone="no"?>
<svg
   viewBox="0 0 32 32"
   x="0px"
   y="0px"
   version="1.1"
   id="svg424"
   sodipodi:docname="diagnostics.svg"
   width="32"
   height="32"
   inkscape:version="1.2 (dc2aeda, 2022-05-15)"
   xmlns:inkscape="http://www.inkscape.org/namespaces/inkscape"
   xmlns:sodipodi="http://sodipodi.sourceforge.net/DTD/sodipodi-0.dtd"
   xmlns="http://www.w3.org/2000/svg"
   xmlns:svg="http://www.w3.org/2000/svg"
   xmlns:rdf="http://www.w3.org/1999/02/22-rdf-syntax-ns#"
   xmlns:cc="http://creativecommons.org/ns#"
   xmlns:dc="http://purl.org/dc/elements/1.1/">
  <defs
     id="defs428" />
  <sodipodi:namedview
     id="namedview426"
     pagecolor="#ffffff"
     bordercolor="#666666"
     borderopacity="1.0"
     inkscape:showpageshadow="2"
     inkscape:pageopacity="0.0"
     inkscape:pagecheckerboard="0"
     inkscape:deskcolor="#d1d1d1"
     showgrid="false"
     inkscape:zoom="22.25"
     inkscape:cx="9.1910112"
     inkscape:cy="20"
     inkscape:window-width="1390"
     inkscape:window-height="1040"
     inkscape:window-x="0"
     inkscape:window-y="44"
     inkscape:window-maximized="0"
     inkscape:current-layer="svg424" />
  <title
     id="title414">stetoscop</title>
  <path
     d="m 30,16 a 4,4 0 1 0 -5,3.86 V 22 A 6,6 0 0 1 13,22 V 19.94 A 9,9 0 0 0 21,11 V 7 A 3,3 0 0 0 18.86,4.14 3,3 0 0 0 16,2 1,1 0 0 0 15,3 V 7 A 1,1 0 0 0 16,8 3,3 0 0 0 18.7,6.29 1,1 0 0 1 19,7 v 4 A 7,7 0 0 1 5,11 V 7 A 1,1 0 0 1 5.3,6.29 3,3 0 0 0 8,8 1,1 0 0 0 9,7 V 3 A 1,1 0 0 0 8,2 3,3 0 0 0 5.14,4.14 3,3 0 0 0 3,7 v 4 a 9,9 0 0 0 8,8.94 V 22 a 8,8 0 0 0 16,0 V 19.86 A 4,4 0 0 0 30,16 Z m -4,2 a 2,2 0 1 1 2,-2 2,2 0 0 1 -2,2 z"
     id="path416" />
  <circle
     cx="26"
     cy="16"
     r="1"
     id="circle418" />
  <text
     x="0"
     y="47"
     fill="#000000"
     font-size="5px"
     font-weight="bold"
     font-family="'Helvetica Neue', Helvetica, Arial-Unicode, Arial, Sans-serif"
     id="text420">Created by ghufronagustian</text>
  <text
     x="0"
     y="52"
     fill="#000000"
     font-size="5px"
     font-weight="bold"
     font-family="'Helvetica Neue', Helvetica, Arial-Unicode, Arial, Sans-serif"
     id="text422">from the Noun Project</text>
  <metadata
     id="metadata547">
    <rdf:RDF>
      <cc:Work
         rdf:about="">
        <dc:title>stetoscop</dc:title>
      </cc:Work>
    </rdf:RDF>
  </metadata>
</svg>
