<?xml version="1.0" encoding="UTF-8" standalone="no"?>
<svg
   xmlns:dc="http://purl.org/dc/elements/1.1/"
   xmlns:cc="http://creativecommons.org/ns#"
   xmlns:rdf="http://www.w3.org/1999/02/22-rdf-syntax-ns#"
   xmlns:svg="http://www.w3.org/2000/svg"
   xmlns="http://www.w3.org/2000/svg"
   xmlns:sodipodi="http://sodipodi.sourceforge.net/DTD/sodipodi-0.dtd"
   xmlns:inkscape="http://www.inkscape.org/namespaces/inkscape"
   version="1.1"
   x="0px"
   y="0px"
   viewBox="0 0 32.5 32.5"
   enable-background="new 0 0 32 32"
   xml:space="preserve"
   id="svg5595"
   sodipodi:docname="globe_button.svg"
   width="32.5"
   height="32.5"
   inkscape:version="0.92.2 5c3e80d, 2017-08-06"><metadata
     id="metadata5601"><rdf:RDF><cc:Work
         rdf:about=""><dc:format>image/svg+xml</dc:format><dc:type
           rdf:resource="http://purl.org/dc/dcmitype/StillImage" /><dc:title></dc:title></cc:Work></rdf:RDF></metadata><defs
     id="defs5599" /><sodipodi:namedview
     pagecolor="#ffffff"
     bordercolor="#666666"
     borderopacity="1"
     objecttolerance="10"
     gridtolerance="10"
     guidetolerance="10"
     inkscape:pageopacity="0"
     inkscape:pageshadow="2"
     inkscape:window-width="1252"
     inkscape:window-height="959"
     id="namedview5597"
     showgrid="false"
     inkscape:zoom="16.68772"
     inkscape:cx="19.713107"
     inkscape:cy="17.677138"
     inkscape:window-x="3625"
     inkscape:window-y="209"
     inkscape:window-maximized="0"
     inkscape:current-layer="g5587" /><g
     display="none"
     id="g5563"
     style="display:none"
     transform="translate(0,-7.5)"><rect
       x="-125"
       y="-9"
       display="inline"
       stroke-miterlimit="10"
       width="533.33301"
       height="202.33299"
       id="rect5561"
       style="display:inline;fill:#000000;stroke:#1a1718;stroke-miterlimit:10" /></g><g
     id="g5589"
     transform="translate(0,0.46610169)"><g
       id="g5587"><g
         id="g5569"
         style="fill:#2779aa;fill-opacity:1;stroke:#2779aa;stroke-width:0.5;stroke-miterlimit:4;stroke-dasharray:none;stroke-opacity:1"
         transform="translate(0.23969721,-0.17977292)"><g
           id="g5567"
           style="fill:#2779aa;fill-opacity:1;stroke:#2779aa;stroke-width:0.5;stroke-miterlimit:4;stroke-dasharray:none;stroke-opacity:1"><path
             d="M 16,1 C 24.271,1 31,7.729 31,16 31,24.271 24.271,31 16,31 7.729,31 1,24.271 1,16 1,7.729 7.729,1 16,1 M 16,0 C 7.163,0 0,7.163 0,16 0,24.837 7.163,32 16,32 24.837,32 32,24.837 32,16 32,7.163 24.837,0 16,0 Z"
             id="path5565"
             inkscape:connector-curvature="0"
             style="fill:#2779aa;fill-opacity:1;stroke:#2779aa;stroke-width:0.5;stroke-miterlimit:4;stroke-dasharray:none;stroke-opacity:1" /></g></g><g
         id="g5573"
         style="fill:#2779aa;fill-opacity:1"
         transform="translate(0.17977291,-0.05992431)"><path
           d="m 22.401,26.947 c -0.115,0 -0.213,-0.02 -0.286,-0.042 -0.291,-0.087 -1.177,-0.354 -2.079,-3.954 -0.318,-1.272 -0.561,-1.341 -1.001,-1.465 -0.292,-0.082 -0.692,-0.195 -1.126,-0.563 -0.468,-0.397 -0.71,-0.781 -0.924,-1.12 -0.288,-0.457 -0.496,-0.786 -1.23,-1.087 -0.436,-0.179 -0.692,-0.236 -0.847,-0.271 -0.486,-0.11 -0.648,-0.329 -0.618,-0.837 0.007,-0.106 0.016,-0.261 0.01,-0.486 -0.021,-0.832 -0.154,-1.275 -0.216,-1.359 -0.651,-0.468 -0.723,-0.74 -0.844,-1.523 -0.021,-0.135 -0.045,-0.292 -0.077,-0.477 -0.138,-0.786 0.427,-1.555 0.973,-2.298 0.392,-0.534 0.836,-1.138 0.819,-1.537 C 14.894,8.38 15.67,7.89 15.758,7.839 l 0.213,-0.122 0.226,0.093 c 0.061,0.025 1.493,0.626 2.461,2.167 0.002,0.003 0.004,0.006 0.006,0.01 C 18.706,9.819 18.743,9.629 18.767,9.508 18.817,9.252 18.856,9.05 18.92,8.9 18.997,8.684 18.963,7.67 18.882,6.86 L 18.843,6.473 19.208,6.34 c 0.9,-0.327 1.298,-0.219 1.682,0.083 0.073,0.053 0.182,0.085 0.593,-0.079 l 0.39,-0.151 C 22.219,6.061 22.648,5.897 22.689,5.797 22.711,5.743 22.724,5.53 22.357,4.727 21.419,2.671 22.41,1.902 22.526,1.821 l 0.572,0.82 -0.286,-0.41 0.307,0.395 c -0.005,0.004 -0.436,0.407 0.148,1.687 0.371,0.812 0.547,1.378 0.348,1.864 -0.205,0.5 -0.7,0.689 -1.385,0.951 L 21.852,7.274 C 21.013,7.605 20.638,7.5 20.27,7.208 20.208,7.16 20.146,7.113 19.913,7.166 c 0.055,0.691 0.1,1.724 -0.075,2.129 -0.033,0.083 -0.057,0.232 -0.09,0.401 -0.127,0.659 -0.271,1.405 -0.868,1.517 -0.554,0.104 -0.93,-0.484 -1.069,-0.706 -0.549,-0.875 -1.278,-1.382 -1.686,-1.616 -0.09,0.173 -0.189,0.484 -0.169,0.995 0.03,0.748 -0.5,1.47 -1.014,2.168 -0.401,0.547 -0.857,1.168 -0.794,1.534 0.034,0.192 0.06,0.356 0.081,0.497 0.096,0.62 0.096,0.62 0.48,0.9 0.364,0.266 0.562,0.976 0.591,2.109 0.004,0.17 0.002,0.305 -0.003,0.413 0.218,0.056 0.477,0.134 0.837,0.281 1.03,0.422 1.369,0.959 1.697,1.479 0.192,0.306 0.375,0.594 0.727,0.893 0.267,0.227 0.49,0.29 0.748,0.362 0.727,0.205 1.274,0.481 1.701,2.186 0.639,2.55 1.238,3.21 1.398,3.239 0.213,-0.187 0.357,-0.308 0.501,-0.429 0.682,-0.572 1.271,-1.066 1.708,-2.811 0.262,-1.045 0.394,-1.281 0.563,-1.521 0.097,-0.136 0.217,-0.305 0.579,-1.9 0.715,-3.155 1.403,-4.26 1.433,-4.306 l 0.273,-0.43 0.425,0.282 c 0.294,0.195 1.774,1.217 1.999,2.179 0.036,0.079 0.255,0.314 0.383,0.427 0.451,-0.023 0.718,-0.942 0.72,-0.952 l 0.969,0.25 c -0.187,0.722 -0.804,1.889 -1.949,1.681 -0.34,-0.063 -1.003,-0.779 -1.097,-1.179 -0.074,-0.32 -0.609,-0.837 -1.115,-1.236 -0.244,0.563 -0.646,1.66 -1.065,3.504 -0.379,1.67 -0.531,1.968 -0.737,2.258 -0.082,0.115 -0.174,0.245 -0.409,1.186 -0.517,2.06 -1.289,2.708 -2.036,3.335 -0.133,0.111 -0.267,0.224 -0.4,0.346 -0.272,0.249 -0.539,0.316 -0.749,0.316 z"
           id="path5571"
           inkscape:connector-curvature="0"
           style="fill:#2779aa;fill-opacity:1;stroke:#2779aa;stroke-width:0.5;stroke-miterlimit:4;stroke-dasharray:none;stroke-opacity:1" /></g><g
         id="g5577"
         style="fill:#2779aa;fill-opacity:1;stroke:#2779aa;stroke-width:0.5;stroke-miterlimit:4;stroke-dasharray:none;stroke-opacity:1"
         transform="translate(0.17977291,-0.05992431)"><path
           d="M 8.747,6.348 C 8.622,6.348 8.495,6.306 8.379,6.189 7.809,5.615 9.277,3.763 9.831,3.066 9.855,2.971 9.98,2.149 10.056,1.484 L 11.05,1.596 C 10.846,3.394 10.696,3.584 10.615,3.686 10.511,3.816 10.232,4.209 9.949,4.628 10.881,4.285 11.932,4.185 12.895,4.094 13.135,4.071 13.372,4.049 13.599,4.023 13.772,4.004 13.824,3.967 13.825,3.966 13.811,3.892 13.604,3.5 13.494,3.29 13.273,2.869 13.064,2.47 13.176,2.091 c 0.182,-0.612 1.123,-1.707 1.31,-1.92 l 0.752,0.659 c -0.469,0.535 -1.023,1.278 -1.103,1.544 0.02,0.021 0.155,0.279 0.245,0.451 0.274,0.522 0.585,1.114 0.306,1.64 C 14.52,4.777 14.193,4.964 13.711,5.018 13.478,5.044 13.236,5.067 12.99,5.09 11.725,5.21 10.292,5.346 9.387,6.058 9.279,6.143 9.019,6.348 8.747,6.348 Z"
           id="path5575"
           inkscape:connector-curvature="0"
           style="fill:#2779aa;fill-opacity:1;stroke:#2779aa;stroke-width:0.5;stroke-miterlimit:4;stroke-dasharray:none;stroke-opacity:1" /></g><g
         id="g5581"
         style="fill:#2779aa;fill-opacity:1;stroke:#2779aa;stroke-width:0.5;stroke-miterlimit:4;stroke-dasharray:none;stroke-opacity:1"
         transform="translate(0.17977291,-0.05992431)"><path
           d="M 0.991,16.876 0.165,16.312 C 0.397,15.973 0.77,15.81 1.132,15.652 1.719,15.396 1.96,15.25 1.986,14.829 2.02,14.27 2.602,13.618 2.963,13.334 3.25,12.683 4.021,10.758 4.002,10.26 3.995,10.068 3.96,9.857 3.922,9.623 3.805,8.91 3.646,7.933 4.021,6.667 L 4.491,5.084 5.45,5.369 4.98,6.952 C 4.67,7.998 4.796,8.776 4.907,9.463 4.953,9.742 4.992,9.994 5.001,10.224 5.014,10.578 4.367,12.782 3.874,13.721 L 3.823,13.856 3.803,13.849 C 3.715,14 3.632,14.101 3.562,14.133 l -0.007,0.003 c -0.199,0.167 -0.559,0.587 -0.572,0.754 -0.065,1.074 -0.899,1.438 -1.452,1.679 -0.22,0.096 -0.47,0.205 -0.54,0.307 z"
           id="path5579"
           inkscape:connector-curvature="0"
           style="fill:#2779aa;fill-opacity:1;stroke:#2779aa;stroke-width:0.5;stroke-miterlimit:4;stroke-dasharray:none;stroke-opacity:1" /></g><g
         id="g5585"
         style="fill:#2779aa;fill-opacity:1;stroke:#2779aa;stroke-width:0.5;stroke-miterlimit:4;stroke-dasharray:none;stroke-opacity:1"
         transform="translate(0.17977291,-0.05992431)"><path
           d="M 11.894,30.505 10.898,30.409 C 11.142,27.887 9.545,26.904 8.489,26.255 7.93,25.911 7.49,25.641 7.437,25.175 7.358,24.46 5.416,23.338 4.498,23.33 3.436,23.321 3.37,22.107 3.322,21.221 3.293,20.692 3.254,19.968 3.032,19.778 2.944,19.703 2.782,19.709 2.693,19.716 c -0.412,0.043 -0.95,0.343 -1.2,0.668 L 0.7,19.775 c 0.415,-0.54 1.21,-0.982 1.89,-1.053 0.432,-0.042 0.813,0.059 1.093,0.297 0.547,0.469 0.593,1.323 0.638,2.149 0.021,0.367 0.058,1.052 0.186,1.17 1.193,0.003 3.764,1.274 3.926,2.727 0.034,0.003 0.351,0.197 0.581,0.34 1.111,0.683 3.183,1.956 2.88,5.1 z"
           id="path5583"
           inkscape:connector-curvature="0"
           style="fill:#2779aa;fill-opacity:1;stroke:#2779aa;stroke-width:0.5;stroke-miterlimit:4;stroke-dasharray:none;stroke-opacity:1" /></g></g></g></svg>