<?xml version="1.0" encoding="UTF-8" standalone="no"?>
<svg
   height="100px"
   width="100px"
   fill="#000000"
   version="1.0"
   x="0px"
   y="0px"
   viewBox="0 0 24 24"
   enable-background="new 0 0 24 24"
   xml:space="preserve"
   id="svg13"
   sodipodi:docname="link_header.svg"
   inkscape:version="1.1 (c4e8f9e, 2021-05-24)"
   xmlns:inkscape="http://www.inkscape.org/namespaces/inkscape"
   xmlns:sodipodi="http://sodipodi.sourceforge.net/DTD/sodipodi-0.dtd"
   xmlns="http://www.w3.org/2000/svg"
   xmlns:svg="http://www.w3.org/2000/svg"><defs
     id="defs17" /><sodipodi:namedview
     id="namedview15"
     pagecolor="#ffffff"
     bordercolor="#666666"
     borderopacity="1.0"
     inkscape:pageshadow="2"
     inkscape:pageopacity="0.0"
     inkscape:pagecheckerboard="0"
     showgrid="false"
     inkscape:zoom="7.85"
     inkscape:cx="24.840764"
     inkscape:cy="50"
     inkscape:window-width="1451"
     inkscape:window-height="869"
     inkscape:window-x="2086"
     inkscape:window-y="69"
     inkscape:window-maximized="0"
     inkscape:current-layer="svg13" /><path
     d="M15,2c-1.6,0-3.1,0.7-4.2,1.7c0.8,0.2,1.5,0.5,2.1,0.9C13.5,4.2,14.2,4,15,4c2.2,0,4,1.8,4,4v5c0,2.2-1.8,4-4,4s-4-1.8-4-4  V9.5c-0.5-0.6-1.2-1-2-1V13c0,3.3,2.7,6,6,6s6-2.7,6-6V8C21,4.7,18.3,2,15,2z"
     id="path9"
     style="fill:#2779aa;fill-opacity:1;stroke:#2779aa;stroke-opacity:1" /><path
     d="M9,22c1.6,0,3.1-0.7,4.2-1.7c-0.8-0.2-1.5-0.5-2.1-0.9C10.5,19.8,9.8,20,9,20c-2.2,0-4-1.8-4-4v-5c0-2.2,1.8-4,4-4  s4,1.8,4,4v3.5c0.5,0.6,1.2,1,2,1V11c0-3.3-2.7-6-6-6s-6,2.7-6,6v5C3,19.3,5.7,22,9,22z"
     id="path11"
     style="stroke:#2779aa;stroke-opacity:1;fill:#2779aa;fill-opacity:1" /></svg>
