<?xml version="1.0" encoding="UTF-8" standalone="no"?>
<svg
   width="100mm"
   height="100mm"
   version="1.1"
   viewBox="0 0 283.46456 283.46456"
   id="svg2308"
   xmlns="http://www.w3.org/2000/svg"
   xmlns:svg="http://www.w3.org/2000/svg">
  <defs
     id="defs2218" />
  <path
     d="m 283.46457,133.43119 v -7.4446 H 225.96744 C 225.39171,86.187099 193.76793,53.828656 154.38191,51.82919 L 154.38395,0 h -7.47469 v 51.824128 h -2.58683 l -0.002,-40.657491 H 129.08337 V 54.689185 C 117.58446,58.125786 107.23518,64.138814 98.608832,72.441407 78.483563,83.32255 63.534206,102.7933 58.93464,125.98659 H 17.826708 v 7.4446 h 40.247993 c 0,1.14485 0,2.28971 -0.287876,3.4366 L 0,136.86576 v 15.17569 h 58.071443 c 4.887839,36.07796 34.210614,64.71183 71.011217,68.14382 l -0.002,63.2793 h 15.23702 v -63.2793 c 0.86161,0 1.72522,-0.28671 2.58683,-0.28671 v 44.95457 h 7.47469 l 0.002,-46.38406 c 24.14951,-5.43956 43.9866,-21.76027 54.04619,-43.52255 5.7492,-6.87108 10.06161,-14.60268 13.22438,-22.9073 h 51.74895 v -15.17569 h -48.01084 c 0.28787,-1.14486 0.28787,-2.28972 0.28787,-3.4366 z m -64.97334,-7.73111 H 214.467 C 208.14196,95.348194 184.56828,71.294371 154.38293,64.425317 v -5.439558 c 35.36025,2.289717 63.53501,31.209888 64.10932,66.716351 z m -36.22375,60.98624 c -8.33614,4.29475 -17.82395,7.15809 -27.59994,7.7311 v -42.37804 h 45.4239 c -2.29897,13.45766 -8.62431,25.48382 -17.82396,34.64643 z M 129.08023,78.168481 V 125.69907 H 82.794857 c 0,-9.16312 2.013085,-18.03923 5.461542,-26.057341 C 98.607711,88.189097 112.98123,80.170982 129.08023,78.167978 Z m 15.23701,47.530589 V 78.168481 c 0.86162,0 1.72523,0.286717 2.58684,0.286717 v 47.244082 z m 2.58887,7.7311 v 3.4366 h -2.58684 v -3.4366 z m -17.82599,0 v 3.4366 l -45.421865,-0.002 c -0.287877,-1.14486 -0.287877,-2.28972 -0.575736,-3.4366 z m 0,18.61073 v 38.94149 C 110.10652,184.6828 95.157173,170.36663 87.682491,152.0409 Z m 15.23702,0 h 2.58684 v 42.09103 h -2.58684 z m 10.06365,-15.1757 v -3.4366 h 45.71004 c 0.28787,1.14486 0.28787,2.28972 0.28787,3.4366 z m 0,-11.16613 V 80.171491 c 21.84819,6.299583 38.81069,23.478789 44.27223,45.526069 z m -7.47468,-66.427818 v 4.008041 c -0.86161,0 -1.72522,-0.28671 -2.58684,-0.28671 v -3.436602 c 0.86162,-0.284734 1.72325,-0.284734 2.58684,-0.284734 z m -17.82599,3.436601 v 0.286711 h -1.14949 c 0.28787,0 0.86361,-0.286711 1.14949,-0.286711 z M 75.318556,123.69409 v 2.00498 h -0.57376 c 0.287878,-0.57341 0.287878,-1.14486 0.57376,-2.00498 z m -2.011108,9.73614 h 2.298973 c 0,1.14485 0.287871,2.28971 0.287871,3.43659 h -2.874703 c 0,-1.14683 0,-2.29169 0.287871,-3.43659 z m 0.285882,18.61072 h 6.037376 c 8.050517,22.33377 26.448284,40.086 49.448144,46.9596 v 6.01308 c -28.17374,-3.4366 -50.884932,-25.19884 -55.484498,-52.97319 z m 70.72152,52.97319 v -3.1499 h 2.58684 v 2.86314 c -0.86161,0 -1.72324,0.28671 -2.58684,0.28671 z m 10.06366,-3.1499 c 1.43735,0 2.8747,0 4.02423,-0.28671 -1.43734,0.57342 -2.58683,0.85815 -4.02423,1.43157 z m 63.24531,-65.00035 h -1.72522 c 0,-1.14486 0,-2.28972 -0.28787,-3.4366 h 2.58684 c 0.002,1.14683 -0.28588,2.29169 -0.57375,3.4366 z"
     id="path2220"
     style="fill:#2779b3;fill-opacity:1;stroke-width:0.507216" />
</svg>
