<svg height='100px' width='100px'  fill="#000000" xmlns="http://www.w3.org/2000/svg" viewBox="0 0 100 100" x="0px" y="0px"><path d="M95,49.99909A45.01185,45.01185,0,0,1,8.53651,67.51642,44.7367,44.7367,0,0,1,5,49.99909a3.14982,3.14982,0,1,1,6.29963,0A38.6789,38.6789,0,1,0,30.74341,16.42157a38.98522,38.98522,0,0,0-10.497,8.83249h7.25406a3.14982,3.14982,0,1,1,0,6.29963H12.66185A3.15025,3.15025,0,0,1,9.512,28.40387V13.56529a3.1507,3.1507,0,0,1,6.30139,0V20.742A44.89568,44.89568,0,0,1,50.00087,5,44.96776,44.96776,0,0,1,95,49.99909ZM65.55132,67.0559a3.14869,3.14869,0,0,1-4.454,0L47.33618,53.293a3.14,3.14,0,0,1-1.2427-2.50473v-25.413a3.1507,3.1507,0,1,1,6.30139,0V49.44189L65.55132,62.6001A3.15081,3.15081,0,0,1,65.55132,67.0559Z"></path></svg>