<svg height='100px' width='100px'  fill="#2779aa" xmlns="http://www.w3.org/2000/svg" xmlns:xlink="http://www.w3.org/1999/xlink" version="1.0" x="0px" y="0px" viewBox="0 0 24 24" enable-background="new 0 0 24 24" xml:space="preserve"><path fill="none" stroke="#2779aa" stroke-width="2" stroke-miterlimit="10" d="M13.5,6.9c0,0-5.9,5.9-6.9,6.9  c-3.1,3.1-0.5,2.6-3.4,5.6c-0.1,0.1-0.1,0.2,0,0.3l1.3,1.3c0.1,0.1,0.2,0.1,0.3,0c3-2.9,2.4-0.3,5.6-3.4c1.1-1.1,6.9-6.9,6.9-6.9"></path><line fill="none" stroke="#2779aa" stroke-width="2" stroke-miterlimit="10" x1="12.4" y1="5.3" x2="18.7" y2="11.6"></line><path d="M17.9,10.8c0,0,3-3,3.1-3.1c1.3-1.3,1.3-3.4,0-4.7c-1.3-1.3-3.4-1.3-4.7,0c-0.1,0.1-3.1,3.1-3.1,3.1L17.9,10.8z"></path></svg>