<?xml version="1.0" encoding="UTF-8" standalone="no"?>
<svg
   xmlns:dc="http://purl.org/dc/elements/1.1/"
   xmlns:cc="http://creativecommons.org/ns#"
   xmlns:rdf="http://www.w3.org/1999/02/22-rdf-syntax-ns#"
   xmlns:svg="http://www.w3.org/2000/svg"
   xmlns="http://www.w3.org/2000/svg"
   xmlns:sodipodi="http://sodipodi.sourceforge.net/DTD/sodipodi-0.dtd"
   xmlns:inkscape="http://www.inkscape.org/namespaces/inkscape"
   version="1.1"
   x="0px"
   y="0px"
   viewBox="0 0 24 24"
   enable-background="new 0 0 64 64"
   xml:space="preserve"
   id="svg1134"
   sodipodi:docname="plot_button.svg"
   inkscape:version="0.92.2 5c3e80d, 2017-08-06"
   width="24"
   height="24"><metadata
     id="metadata1140"><rdf:RDF><cc:Work
         rdf:about=""><dc:format>image/svg+xml</dc:format><dc:type
           rdf:resource="http://purl.org/dc/dcmitype/StillImage" /><dc:title /></cc:Work></rdf:RDF></metadata><defs
     id="defs1138" /><sodipodi:namedview
     pagecolor="#ffffff"
     bordercolor="#666666"
     borderopacity="1"
     objecttolerance="10"
     gridtolerance="10"
     guidetolerance="10"
     inkscape:pageopacity="0"
     inkscape:pageshadow="2"
     inkscape:window-width="1638"
     inkscape:window-height="1111"
     id="namedview1136"
     showgrid="false"
     inkscape:zoom="33.37544"
     inkscape:cx="15.570841"
     inkscape:cy="11.801432"
     inkscape:window-x="3072"
     inkscape:window-y="98"
     inkscape:window-maximized="0"
     inkscape:current-layer="g1128" /><g
     display="none"
     id="g1088"
     style="display:none"
     transform="translate(0,-56)"><rect
       x="-306.46899"
       y="-232.76401"
       display="inline"
       width="787"
       height="375.04199"
       id="rect1086"
       style="display:inline;fill:#000000" /></g><g
     display="none"
     id="g1106"
     style="display:none"
     transform="translate(0,-56)"><polyline
       display="inline"
       stroke-miterlimit="10"
       points="64,63 1,63 1,0  "
       id="polyline1090"
       style="display:inline;fill:none;stroke:#000000;stroke-width:2;stroke-miterlimit:10" /><g
       display="inline"
       id="g1104"
       style="display:inline"><polyline
         stroke-miterlimit="10"
         points="14.122,49.629 24.448,32.076     36.717,37.362 41.408,16.278 60.123,6.612   "
         id="polyline1092"
         style="fill:none;stroke:#000000;stroke-width:2;stroke-miterlimit:10" /><circle
         cx="24.448"
         cy="32.076"
         r="3.8770001"
         id="circle1094"
         style="fill:#000000" /><circle
         cx="36.691002"
         cy="37.369999"
         r="3.8770001"
         id="circle1096"
         style="fill:#000000" /><circle
         cx="14.122"
         cy="49.629002"
         r="3.8770001"
         id="circle1098"
         style="fill:#000000" /><circle
         cx="41.493999"
         cy="16.278"
         r="3.8770001"
         id="circle1100"
         style="fill:#000000" /><circle
         cx="60.123001"
         cy="6.612"
         r="3.8770001"
         id="circle1102"
         style="fill:#000000" /></g></g><g
     id="g1128"
     transform="translate(0,-56)"><polygon
       points="0,64 0,0 2,0 2,62 64,62 64,64 "
       id="polygon1108"
       style="fill:#2779aa;fill-opacity:1;stroke:#2779aa;stroke-opacity:1;stroke-width:1.41268418;stroke-miterlimit:4;stroke-dasharray:none"
       transform="matrix(0.35206847,0,0,0.35581374,0.71909164,56.80824)" /><path
       d="m 9.3264618,67.553459 c 0.3643911,0 0.6608322,0.299595 0.6608322,0.667863 0,0.368267 -0.2964411,0.667862 -0.6608322,0.667862 -0.3643911,0 -0.6608322,-0.299595 -0.6608322,-0.667862 0,-0.368268 0.2964411,-0.667863 0.6608322,-0.667863 m 0,-0.711627 c -0.7537787,0 -1.3649692,0.617692 -1.3649692,1.37949 0,0.761797 0.6111905,1.379489 1.3649692,1.379489 0.7537792,0 1.3649692,-0.617692 1.3649692,-1.379489 0,-0.762154 -0.61119,-1.37949 -1.3649692,-1.37949 z"
       id="path1110"
       style="fill:#2779aa;fill-opacity:1;stroke-width:0.35393614"
       inkscape:connector-curvature="0" /><path
       d="m 12.910519,69.394439 -2.576438,-1.12188 c -0.01267,0.252983 -0.114421,0.482127 -0.277077,0.653985 l 2.572916,1.120457 c 0.01409,-0.252627 0.116535,-0.481416 0.280599,-0.652562 z"
       id="path1112"
       style="fill:#2779aa;fill-opacity:1;stroke-width:0.5;stroke:#2779aa;stroke-opacity:1;stroke-miterlimit:4;stroke-dasharray:none"
       inkscape:connector-curvature="0" /><path
       d="m 13.636836,69.437137 c 0.364391,0 0.660832,0.299595 0.660832,0.667862 0,0.368267 -0.296441,0.667863 -0.660832,0.667863 -0.364391,0 -0.660832,-0.299596 -0.660832,-0.667863 0,-0.368267 0.296441,-0.667862 0.660832,-0.667862 m 0,-0.711628 c -0.753779,0 -1.364969,0.617693 -1.364969,1.37949 0,0.761797 0.61119,1.37949 1.364969,1.37949 0.753779,0 1.364969,-0.617693 1.364969,-1.37949 0,-0.761797 -0.61119,-1.37949 -1.364969,-1.37949 z"
       id="path1114"
       style="fill:#2779aa;fill-opacity:1;stroke:none;stroke-width:0.35393614;stroke-opacity:1"
       inkscape:connector-curvature="0" /><path
       d="M 6.4732987,73.825032 9.1497236,69.226851 C 8.9057401,69.183089 8.6944992,69.050011 8.5441654,68.863209 L 5.8680929,73.46139 c 0.2439835,0.04376 0.4548725,0.17684 0.6052058,0.363642 z"
       id="path1116"
       style="fill:#2779aa;fill-opacity:1;stroke-width:0.5;stroke:#2779aa;stroke-opacity:1;stroke-miterlimit:4;stroke-dasharray:none"
       inkscape:connector-curvature="0" /><path
       d="m 5.6910026,73.799057 c 0.3643908,0 0.6608324,0.299596 0.6608324,0.667863 0,0.368267 -0.2964416,0.667862 -0.6608324,0.667862 -0.3643909,0 -0.6608326,-0.299595 -0.6608326,-0.667862 0,-0.368267 0.2967937,-0.667863 0.6608326,-0.667863 m 0,-0.711627 c -0.7537787,0 -1.3649695,0.617693 -1.3649695,1.37949 0,0.761797 0.6111908,1.37949 1.3649695,1.37949 0.7537785,0 1.3649694,-0.617693 1.3649694,-1.37949 0,-0.761797 -0.6111909,-1.37949 -1.3649694,-1.37949 z"
       id="path1118"
       style="fill:#2779aa;fill-opacity:1;stroke-width:0.35393614"
       inkscape:connector-curvature="0" /><path
       d="m 15.327821,63.623496 c -0.214058,0 -0.412272,-0.06832 -0.575984,-0.183599 l -1.244562,5.654591 c 0.04295,-0.0057 0.0852,-0.01316 0.129561,-0.01316 0.20596,0 0.397133,0.06333 0.557324,0.170435 l 1.241394,-5.639292 c -0.03591,0.0039 -0.07077,0.01103 -0.107733,0.01103 z"
       id="path1120"
       style="fill:#2779aa;fill-opacity:1;stroke:#2779aa;stroke-width:0.5;stroke-opacity:1;stroke-miterlimit:4;stroke-dasharray:none"
       inkscape:connector-curvature="0" /><path
       d="m 15.327821,61.932313 c 0.364391,0 0.660833,0.299596 0.660833,0.667863 0,0.368267 -0.296442,0.667863 -0.660833,0.667863 -0.364391,0 -0.660833,-0.299596 -0.660833,-0.667863 0,-0.368267 0.296442,-0.667863 0.660833,-0.667863 m 0,-0.711627 c -0.753778,0 -1.36497,0.617693 -1.36497,1.37949 0,0.761797 0.611192,1.37949 1.36497,1.37949 0.753778,0 1.36497,-0.617693 1.36497,-1.37949 0,-0.761797 -0.611192,-1.37949 -1.36497,-1.37949 z"
       id="path1122"
       style="fill:#2779aa;fill-opacity:1;stroke-width:0.35393614"
       inkscape:connector-curvature="0" /><path
       d="m 20.885926,59.282925 -4.891288,2.552963 c 0.178147,0.159049 0.298907,0.37823 0.332354,0.627655 l 4.881429,-2.547982 c -0.175683,-0.161184 -0.292569,-0.382856 -0.322495,-0.632636 z"
       id="path1124"
       style="fill:#2779aa;fill-opacity:1;stroke-width:0.5;stroke:#2779aa;stroke-opacity:1;stroke-miterlimit:4;stroke-dasharray:none"
       inkscape:connector-curvature="0" /><path
       d="m 21.886504,58.493018 c 0.364392,0 0.660833,0.299595 0.660833,0.667863 0,0.368267 -0.296441,0.667862 -0.660833,0.667862 -0.364391,0 -0.660832,-0.299595 -0.660832,-0.667862 0,-0.368268 0.296441,-0.667863 0.660832,-0.667863 m 0,-0.711627 c -0.753778,0 -1.364969,0.617692 -1.364969,1.37949 0,0.761797 0.611191,1.379489 1.364969,1.379489 0.753779,0 1.36497,-0.617692 1.36497,-1.379489 0,-0.761798 -0.611191,-1.37949 -1.36497,-1.37949 z"
       id="path1126"
       style="fill:#2779aa;fill-opacity:1;stroke-width:0.35393614"
       inkscape:connector-curvature="0" /></g></svg>