<?xml version="1.0" encoding="UTF-8" standalone="no"?>
<svg
   width="560pt"
   height="560pt"
   version="1.1"
   viewBox="0 0 560 560"
   id="svg138"
   xmlns="http://www.w3.org/2000/svg"
   xmlns:svg="http://www.w3.org/2000/svg">
  <defs
     id="defs142" />
  <g
     id="g136"
     transform="translate(-70)"
     style="stroke-width:1.00062992;stroke-dasharray:none;stroke:#bbbbbb;stroke-opacity:1;fill:#bbbbbb;fill-opacity:0">
    <path
       d="M 350,0 C 196,0 70,126 70,280 70,434 196,560 350,560 504,560 630,434 630,280 630,126 504,0 350,0 Z m 0,516.18863 C 226.8,516.18863 113.81137,403.2 113.81137,280 113.81137,156.8 226.8,43.811366 350,43.811366 473.2,43.811366 586.18863,156.8 586.18863,280 586.18863,403.2 473.2,516.18863 350,516.18863 Z"
       id="path132"
       style="stroke-width:1.00062992;stroke-dasharray:none;stroke:#bbbbbb;stroke-opacity:1;fill:#bbbbbb;fill-opacity:1" />
    <path
       d="m 218.4,411.6 182,-78.398 78.398,-182 -182,78.398 z m 112,-151.2 70,-30.801 -30.801,70 -70,30.801 z"
       id="path134"
       style="stroke-width:1.00062992;stroke-dasharray:none;stroke:#bbbbbb;stroke-opacity:1;fill:#bbbbbb;fill-opacity:1" />
  </g>
</svg>
