<?xml version="1.0" encoding="UTF-8" standalone="no"?>
<svg
   xmlns:dc="http://purl.org/dc/elements/1.1/"
   xmlns:cc="http://creativecommons.org/ns#"
   xmlns:rdf="http://www.w3.org/1999/02/22-rdf-syntax-ns#"
   xmlns:svg="http://www.w3.org/2000/svg"
   xmlns="http://www.w3.org/2000/svg"
   xmlns:sodipodi="http://sodipodi.sourceforge.net/DTD/sodipodi-0.dtd"
   xmlns:inkscape="http://www.inkscape.org/namespaces/inkscape"
   version="1.0"
   x="0px"
   y="0px"
   viewBox="0 0 26 26"
   style="enable-background:new 0 0 26 26;"
   xml:space="preserve"
   id="svg7116"
   sodipodi:docname="select_button.svg"
   inkscape:version="0.92.2 5c3e80d, 2017-08-06"><metadata
     id="metadata7122"><rdf:RDF><cc:Work
         rdf:about=""><dc:format>image/svg+xml</dc:format><dc:type
           rdf:resource="http://purl.org/dc/dcmitype/StillImage" /><dc:title></dc:title></cc:Work></rdf:RDF></metadata><defs
     id="defs7120" /><sodipodi:namedview
     pagecolor="#ffffff"
     bordercolor="#666666"
     borderopacity="1"
     objecttolerance="10"
     gridtolerance="10"
     guidetolerance="10"
     inkscape:pageopacity="0"
     inkscape:pageshadow="2"
     inkscape:window-width="776"
     inkscape:window-height="480"
     id="namedview7118"
     showgrid="false"
     inkscape:zoom="9.0769231"
     inkscape:cx="13"
     inkscape:cy="13"
     inkscape:window-x="3905"
     inkscape:window-y="226"
     inkscape:window-maximized="0"
     inkscape:current-layer="g7114" /><g
     id="g7114"><path
       d="M7.219,0.375L3.792,4.659L1.555,3.168C1.094,2.86,0.474,2.986,0.168,3.445s-0.182,1.081,0.277,1.387l3,2   C3.615,6.945,3.808,7,4,7c0.294,0,0.585-0.13,0.781-0.375l4-5c0.345-0.431,0.275-1.061-0.156-1.405   C8.194-0.126,7.564-0.056,7.219,0.375z"
       id="path7102"
       style="fill:#2779aa;fill-opacity:1" /><path
       d="M7.219,9.375l-3.427,4.284l-2.237-1.491c-0.46-0.308-1.081-0.183-1.387,0.277c-0.306,0.459-0.182,1.08,0.277,1.387l3,2   C3.615,15.945,3.808,16,4,16c0.294,0,0.585-0.13,0.781-0.375l4-5c0.345-0.431,0.275-1.061-0.156-1.405   C8.194,8.875,7.564,8.943,7.219,9.375z"
       id="path7104"
       style="fill:#2779aa;fill-opacity:1" /><path
       d="M7.219,18.375l-3.427,4.284l-2.237-1.491c-0.46-0.307-1.081-0.182-1.387,0.277c-0.306,0.46-0.182,1.08,0.277,1.387l3,2   C3.615,24.945,3.808,25,4,25c0.294,0,0.585-0.13,0.781-0.375l4-5c0.345-0.432,0.275-1.061-0.156-1.406   C8.194,17.875,7.564,17.944,7.219,18.375z"
       id="path7106"
       style="fill:#2779aa;fill-opacity:1" /><rect
       x="12"
       y="21"
       width="14"
       height="2"
       id="rect7108"
       style="fill:#2779aa;fill-opacity:1" /><rect
       x="12"
       y="12"
       width="14"
       height="2"
       id="rect7110"
       style="fill:#2779aa;fill-opacity:1" /><rect
       x="12"
       y="3"
       width="14"
       height="2"
       id="rect7112"
       style="stroke:none;stroke-opacity:1;fill:#2779aa;fill-opacity:1" /></g></svg>