<?xml version="1.0" encoding="UTF-8" standalone="no"?>
<svg
   xmlns:dc="http://purl.org/dc/elements/1.1/"
   xmlns:cc="http://creativecommons.org/ns#"
   xmlns:rdf="http://www.w3.org/1999/02/22-rdf-syntax-ns#"
   xmlns:svg="http://www.w3.org/2000/svg"
   xmlns="http://www.w3.org/2000/svg"
   id="svg7116"
   xml:space="preserve"
   style="enable-background:new 0 0 26 26;"
   viewBox="0 0 26 26"
   y="0px"
   x="0px"
   version="1.0"><metadata
     id="metadata7122"><rdf:RDF><cc:Work
         rdf:about=""><dc:format>image/svg+xml</dc:format><dc:type
           rdf:resource="http://purl.org/dc/dcmitype/StillImage" /><dc:title></dc:title></cc:Work></rdf:RDF></metadata><defs
     id="defs7120" /><g
     id="g7114"><path
       style="fill:#2779aa;fill-opacity:1"
       id="path7102"
       d="M7.219,0.375L3.792,4.659L1.555,3.168C1.094,2.86,0.474,2.986,0.168,3.445s-0.182,1.081,0.277,1.387l3,2   C3.615,6.945,3.808,7,4,7c0.294,0,0.585-0.13,0.781-0.375l4-5c0.345-0.431,0.275-1.061-0.156-1.405   C8.194-0.126,7.564-0.056,7.219,0.375z" /><path
       style="fill:#2779aa;fill-opacity:1"
       id="path7104"
       d="M7.219,9.375l-3.427,4.284l-2.237-1.491c-0.46-0.308-1.081-0.183-1.387,0.277c-0.306,0.459-0.182,1.08,0.277,1.387l3,2   C3.615,15.945,3.808,16,4,16c0.294,0,0.585-0.13,0.781-0.375l4-5c0.345-0.431,0.275-1.061-0.156-1.405   C8.194,8.875,7.564,8.943,7.219,9.375z" /><path
       style="fill:#2779aa;fill-opacity:1"
       id="path7106"
       d="M7.219,18.375l-3.427,4.284l-2.237-1.491c-0.46-0.307-1.081-0.182-1.387,0.277c-0.306,0.46-0.182,1.08,0.277,1.387l3,2   C3.615,24.945,3.808,25,4,25c0.294,0,0.585-0.13,0.781-0.375l4-5c0.345-0.432,0.275-1.061-0.156-1.406   C8.194,17.875,7.564,17.944,7.219,18.375z" /><rect
       style="fill:#2779aa;fill-opacity:1"
       id="rect7108"
       height="2"
       width="14"
       y="21"
       x="12" /><rect
       style="fill:#2779aa;fill-opacity:1"
       id="rect7110"
       height="2"
       width="14"
       y="12"
       x="12" /><rect
       style="stroke:none;stroke-opacity:1;fill:#2779aa;fill-opacity:1"
       id="rect7112"
       height="2"
       width="14"
       y="3"
       x="12" /></g></svg>