<?xml version="1.0" encoding="UTF-8"?>
<svg width="1200pt" height="1200pt" version="1.1" viewBox="0 0 1200 1200" xmlns="http://www.w3.org/2000/svg">
 <path d="m825 700c-75 0-135 20-180 45 70 60 100 130 105 135l5 10v110h400v-100c-5 0-85-200-330-200z"/>
 <path d="m1e3 425c0 96.648-78.352 175-175 175s-175-78.352-175-175 78.352-175 175-175 175 78.352 175 175"/>
 <path d="m200 425c0-95 80-175 175-175s175 80 175 175-80 175-175 175-175-80-175-175zm175 275c-245 0-325 200-325 200v100h650v-100s-80-200-325-200z"/>
</svg>
