<?xml version="1.0" encoding="UTF-8" standalone="no"?>
<svg
   data-name="Layer 1"
   viewBox="0 0 100 100"
   x="0px"
   y="0px"
   version="1.1"
   id="svg142"
   sodipodi:docname="standards.svg"
   inkscape:version="1.2 (dc2aeda, 2022-05-15)"
   width="100"
   height="100"
   xmlns:inkscape="http://www.inkscape.org/namespaces/inkscape"
   xmlns:sodipodi="http://sodipodi.sourceforge.net/DTD/sodipodi-0.dtd"
   xmlns="http://www.w3.org/2000/svg"
   xmlns:svg="http://www.w3.org/2000/svg"
   xmlns:rdf="http://www.w3.org/1999/02/22-rdf-syntax-ns#"
   xmlns:cc="http://creativecommons.org/ns#"
   xmlns:dc="http://purl.org/dc/elements/1.1/">
  <defs
     id="defs146" />
  <sodipodi:namedview
     id="namedview144"
     pagecolor="#ffffff"
     bordercolor="#666666"
     borderopacity="1.0"
     inkscape:showpageshadow="2"
     inkscape:pageopacity="0.0"
     inkscape:pagecheckerboard="0"
     inkscape:deskcolor="#d1d1d1"
     showgrid="false"
     inkscape:zoom="7.088"
     inkscape:cx="7.1247178"
     inkscape:cy="62.5"
     inkscape:window-width="1390"
     inkscape:window-height="1036"
     inkscape:window-x="0"
     inkscape:window-y="44"
     inkscape:window-maximized="0"
     inkscape:current-layer="svg142" />
  <title
     id="title132">08</title>
  <g
     data-name="Group"
     id="g136">
    <path
       data-name="Compound Path"
       d="m 67.7,23.1 h -5 V 8.9 h 6.2 v -6 H 31.1 v 6 h 6.2 v 14.2 h -5 a 9,9 0 0 0 -9,9 v 45.6 a 9,9 0 0 0 9,9 H 33 v 7.4 a 3.1,3.1 0 0 0 3,3 h 28 a 3.1,3.1 0 0 0 3,-3 v -7.4 h 0.7 a 9,9 0 0 0 9,-9 V 32.1 a 9,9 0 0 0 -9,-9 z m -11,0 H 53 v -8.4 h -6 v 8.4 H 43.3 V 8.9 h 13.4 z"
       id="path134" />
  </g>
  <metadata
     id="metadata956">
    <rdf:RDF>
      <cc:Work
         rdf:about="">
        <dc:title>08</dc:title>
      </cc:Work>
    </rdf:RDF>
  </metadata>
</svg>
