<?xml version="1.0" encoding="UTF-8" standalone="no"?>
<svg xmlns:rdf="http://www.w3.org/1999/02/22-rdf-syntax-ns#" xmlns="http://www.w3.org/2000/svg" height="8" width="8" version="1.1" xmlns:cc="http://creativecommons.org/ns#" xmlns:dc="http://purl.org/dc/elements/1.1/" viewBox="0 0 8 8">
 <g fill="#d40000" transform="matrix(.53420 0.548 -.54487 .53727 3.4804 .19663)">
  <path d="m3.0017 3.9834 1.9917-0.00147 0.00428-4.9793c0.0023-1.0026-1.9977-1.0026-1.9937 0.00317 0.00174 1.8777-0.00384 4.4604-0.00228 4.9776z"/>
  <path d="m5.0095 1.9887-1.9917 0.016235 0.032632 4.9792c0.00516 1.0026 2.0051 0.98781 1.9937-0.017906-0.015659-1.8776-0.029225-4.4603-0.03462-4.9775z"/>
  <path d="m2.9916 1.9866-0.0026 1.9917 4.9793 0.014461c1.0026 0.00432 1.0067-1.9957 0.0009463-1.9937-1.8777-0.0021-4.4604-0.01296-4.9776-0.012457z"/>
  <path d="m5.0584 3.9691-0.0108-1.9918-4.9792 0.0191c-1.0026 0.00244-0.99325 2.0024 0.012492 1.9937 1.8776-0.0105 4.4603-0.0171 4.9775-0.0211z"/>
 </g>
</svg>
