<?xml version="1.0" encoding="UTF-8" standalone="no"?>
<svg
   xmlns:dc="http://purl.org/dc/elements/1.1/"
   xmlns:cc="http://creativecommons.org/ns#"
   xmlns:rdf="http://www.w3.org/1999/02/22-rdf-syntax-ns#"
   xmlns:svg="http://www.w3.org/2000/svg"
   xmlns="http://www.w3.org/2000/svg"
   xmlns:sodipodi="http://sodipodi.sourceforge.net/DTD/sodipodi-0.dtd"
   xmlns:inkscape="http://www.inkscape.org/namespaces/inkscape"
   width="8"
   height="8"
   viewBox="0 0 8 8"
   id="svg2"
   version="1.1"
   inkscape:version="0.91 r13725"
   sodipodi:docname="x-red.svg">
  <metadata
     id="metadata10">
    <rdf:RDF>
      <cc:Work
         rdf:about="">
        <dc:format>image/svg+xml</dc:format>
        <dc:type
           rdf:resource="http://purl.org/dc/dcmitype/StillImage" />
        <dc:title></dc:title>
      </cc:Work>
    </rdf:RDF>
  </metadata>
  <defs
     id="defs8" />
  <sodipodi:namedview
     pagecolor="#ffffff"
     bordercolor="#666666"
     borderopacity="1"
     objecttolerance="10"
     gridtolerance="10"
     guidetolerance="10"
     inkscape:pageopacity="0"
     inkscape:pageshadow="2"
     inkscape:window-width="1920"
     inkscape:window-height="1176"
     id="namedview6"
     showgrid="true"
     inkscape:zoom="45.254834"
     inkscape:cx="-0.84531717"
     inkscape:cy="4.8783554"
     inkscape:window-x="3840"
     inkscape:window-y="24"
     inkscape:window-maximized="1"
     inkscape:current-layer="g4193">
    <inkscape:grid
       type="xygrid"
       id="grid4140" />
  </sodipodi:namedview>
  <g
     id="g4193">
    <g
       id="g4199"
       transform="matrix(0.53419795,0.54800204,-0.54487301,0.53726567,3.4804109,0.19663038)"
       style="fill:#d40000;fill-opacity:1">
      <path
         d="m 3.0017015,3.9834159 1.9917454,-0.00147 0.00428,-4.97930384 C 5,-2 3,-2 3.0039823,-0.9942319 c 0.00174,1.87768233 -0.00384,4.4603782 -0.00228,4.9776478 z"
         id="path4"
         inkscape:connector-curvature="0"
         style="fill:#d40000;fill-opacity:1"
         sodipodi:nodetypes="ccccc" />
      <path
         d="m 5.0095357,1.9887125 -1.9916798,0.016235 0.032632,4.9791987 c 0.00516,1.0026314 2.0051047,0.9878052 1.9936666,-0.017906 -0.015659,-1.8776179 -0.029225,-4.4602841 -0.03462,-4.977528 z"
         id="path4-3"
         inkscape:connector-curvature="0"
         style="fill:#d40000;fill-opacity:1"
         sodipodi:nodetypes="ccccc" />
      <path
         d="m 2.9915939,1.9865514 -0.0026,1.9917442 4.9792847,0.014461 c 1.0026354,0.00432 1.0067245,-1.9956728 9.463e-4,-1.9937469 -1.8776819,-0.0021 -4.460361,-0.01296 -4.9776327,-0.012457 z"
         id="path4-6"
         inkscape:connector-curvature="0"
         style="fill:#d40000;fill-opacity:1"
         sodipodi:nodetypes="ccccc" />
      <path
         d="M 5.0584499,3.9690501 5.0476239,1.9773335 0.06835463,1.9964451 c -1.0026417,0.00244 -0.9932462,2.002415 0.012492,1.9937079 C 1.9585,3.979592 4.5411936,3.973039 5.0584498,3.969049 Z"
         id="path4-7"
         inkscape:connector-curvature="0"
         style="fill:#d40000;fill-opacity:1"
         sodipodi:nodetypes="ccccc" />
    </g>
  </g>
</svg>
