<?xml version="1.0" encoding="UTF-8" standalone="no"?>
<svg
   xmlns:dc="http://purl.org/dc/elements/1.1/"
   xmlns:cc="http://creativecommons.org/ns#"
   xmlns:rdf="http://www.w3.org/1999/02/22-rdf-syntax-ns#"
   xmlns:svg="http://www.w3.org/2000/svg"
   xmlns="http://www.w3.org/2000/svg"
   id="svg14"
   xml:space="preserve"
   enable-background="new 0 0 24 24"
   viewBox="0 0 24 24"
   y="0px"
   x="0px"
   version="1.0"><metadata
     id="metadata20"><rdf:RDF><cc:Work
         rdf:about=""><dc:format>image/svg+xml</dc:format><dc:type
           rdf:resource="http://purl.org/dc/dcmitype/StillImage" /><dc:title></dc:title></cc:Work></rdf:RDF></metadata><defs
     id="defs18" /><g
     style="fill:#2779aa;fill-opacity:1"
     id="g6"><g
       style="fill:#2779aa;fill-opacity:1"
       id="g4"><path
         style="fill:#2779aa;fill-opacity:1"
         id="path2"
         d="M9,4c2.8,0,5,2.2,5,5s-2.2,5-5,5s-5-2.2-5-5S6.2,4,9,4 M9,2C5.1,2,2,5.1,2,9c0,3.9,3.1,7,7,7s7-3.1,7-7C16,5.1,12.9,2,9,2    L9,2z" /></g></g><g
     style="fill:#2779aa;fill-opacity:1"
     id="g12"><polygon
       style="fill:#2779aa;fill-opacity:1"
       id="polygon8"
       points="22,20.3 20.3,22 14,15.7 14,14 15.7,14  " /><rect
       style="fill:#2779aa;fill-opacity:1"
       id="rect10"
       height="3.6"
       width="1.2"
       transform="matrix(0.7071 -0.7071 0.7071 0.7071 -5.9741 14.4227)"
       y="12.6"
       x="13.8" /></g></svg>