<?xml version="1.0" encoding="UTF-8" standalone="no"?>
<svg
   xmlns:dc="http://purl.org/dc/elements/1.1/"
   xmlns:cc="http://creativecommons.org/ns#"
   xmlns:rdf="http://www.w3.org/1999/02/22-rdf-syntax-ns#"
   xmlns:svg="http://www.w3.org/2000/svg"
   xmlns="http://www.w3.org/2000/svg"
   xmlns:sodipodi="http://sodipodi.sourceforge.net/DTD/sodipodi-0.dtd"
   xmlns:inkscape="http://www.inkscape.org/namespaces/inkscape"
   version="1.0"
   x="0px"
   y="0px"
   viewBox="0 0 24 24"
   enable-background="new 0 0 24 24"
   xml:space="preserve"
   id="svg14"
   sodipodi:docname="zoomout_button.svg"
   inkscape:version="0.92.2 5c3e80d, 2017-08-06"><metadata
     id="metadata20"><rdf:RDF><cc:Work
         rdf:about=""><dc:format>image/svg+xml</dc:format><dc:type
           rdf:resource="http://purl.org/dc/dcmitype/StillImage" /><dc:title></dc:title></cc:Work></rdf:RDF></metadata><defs
     id="defs18" /><sodipodi:namedview
     pagecolor="#ffffff"
     bordercolor="#666666"
     borderopacity="1"
     objecttolerance="10"
     gridtolerance="10"
     guidetolerance="10"
     inkscape:pageopacity="0"
     inkscape:pageshadow="2"
     inkscape:window-width="1804"
     inkscape:window-height="1199"
     id="namedview16"
     showgrid="false"
     inkscape:zoom="39.333333"
     inkscape:cx="12.483339"
     inkscape:cy="11.547586"
     inkscape:window-x="3208"
     inkscape:window-y="87"
     inkscape:window-maximized="0"
     inkscape:current-layer="svg14" /><g
     id="g6"
     style="fill:#2779aa;fill-opacity:1"><g
       id="g4"
       style="fill:#2779aa;fill-opacity:1"><path
         d="M9,4c2.8,0,5,2.2,5,5s-2.2,5-5,5s-5-2.2-5-5S6.2,4,9,4 M9,2C5.1,2,2,5.1,2,9c0,3.9,3.1,7,7,7s7-3.1,7-7C16,5.1,12.9,2,9,2    L9,2z"
         id="path2"
         style="fill:#2779aa;fill-opacity:1" /></g></g><g
     id="g12"
     style="fill:#2779aa;fill-opacity:1"><polygon
       points="22,20.3 20.3,22 14,15.7 14,14 15.7,14  "
       id="polygon8"
       style="fill:#2779aa;fill-opacity:1" /><rect
       x="13.8"
       y="12.6"
       transform="matrix(0.7071 -0.7071 0.7071 0.7071 -5.9741 14.4227)"
       width="1.2"
       height="3.6"
       id="rect10"
       style="fill:#2779aa;fill-opacity:1" /></g><path
     style="fill:#2779aa;fill-opacity:1;fill-rule:evenodd;stroke:#2779aa;stroke-width:1.25;stroke-linecap:butt;stroke-linejoin:miter;stroke-miterlimit:4;stroke-dasharray:none;stroke-opacity:1"
     d="M 5.9238663,9.025424 12.12698,8.923729"
     id="path846"
     inkscape:connector-curvature="0" /></svg>